%TF.GenerationSoftware,KiCad,Pcbnew,9.0.6*%
%TF.CreationDate,2025-12-12T12:47:45+02:00*%
%TF.ProjectId,Excercise_6,45786365-7263-4697-9365-5f362e6b6963,rev?*%
%TF.SameCoordinates,Original*%
%TF.FileFunction,Copper,L1,Top*%
%TF.FilePolarity,Positive*%
%FSLAX46Y46*%
G04 Gerber Fmt 4.6, Leading zero omitted, Abs format (unit mm)*
G04 Created by KiCad (PCBNEW 9.0.6) date 2025-12-12 12:47:45*
%MOMM*%
%LPD*%
G01*
G04 APERTURE LIST*
G04 Aperture macros list*
%AMRoundRect*
0 Rectangle with rounded corners*
0 $1 Rounding radius*
0 $2 $3 $4 $5 $6 $7 $8 $9 X,Y pos of 4 corners*
0 Add a 4 corners polygon primitive as box body*
4,1,4,$2,$3,$4,$5,$6,$7,$8,$9,$2,$3,0*
0 Add four circle primitives for the rounded corners*
1,1,$1+$1,$2,$3*
1,1,$1+$1,$4,$5*
1,1,$1+$1,$6,$7*
1,1,$1+$1,$8,$9*
0 Add four rect primitives between the rounded corners*
20,1,$1+$1,$2,$3,$4,$5,0*
20,1,$1+$1,$4,$5,$6,$7,0*
20,1,$1+$1,$6,$7,$8,$9,0*
20,1,$1+$1,$8,$9,$2,$3,0*%
G04 Aperture macros list end*
%TA.AperFunction,SMDPad,CuDef*%
%ADD10RoundRect,0.087500X-0.225000X-0.087500X0.225000X-0.087500X0.225000X0.087500X-0.225000X0.087500X0*%
%TD*%
%TA.AperFunction,SMDPad,CuDef*%
%ADD11RoundRect,0.087500X-0.087500X-0.225000X0.087500X-0.225000X0.087500X0.225000X-0.087500X0.225000X0*%
%TD*%
%TA.AperFunction,SMDPad,CuDef*%
%ADD12RoundRect,0.200000X-0.200000X-0.275000X0.200000X-0.275000X0.200000X0.275000X-0.200000X0.275000X0*%
%TD*%
%TA.AperFunction,SMDPad,CuDef*%
%ADD13RoundRect,0.225000X-0.225000X-0.250000X0.225000X-0.250000X0.225000X0.250000X-0.225000X0.250000X0*%
%TD*%
%TA.AperFunction,SMDPad,CuDef*%
%ADD14RoundRect,0.218750X-0.218750X-0.256250X0.218750X-0.256250X0.218750X0.256250X-0.218750X0.256250X0*%
%TD*%
%TA.AperFunction,SMDPad,CuDef*%
%ADD15R,1.400000X0.800000*%
%TD*%
%TA.AperFunction,SMDPad,CuDef*%
%ADD16R,1.400000X0.400000*%
%TD*%
%TA.AperFunction,SMDPad,CuDef*%
%ADD17R,0.400000X1.400000*%
%TD*%
%TA.AperFunction,SMDPad,CuDef*%
%ADD18R,1.000000X0.400000*%
%TD*%
%TA.AperFunction,ComponentPad*%
%ADD19RoundRect,0.250000X-0.350000X-0.625000X0.350000X-0.625000X0.350000X0.625000X-0.350000X0.625000X0*%
%TD*%
%TA.AperFunction,ComponentPad*%
%ADD20O,1.200000X1.750000*%
%TD*%
%TA.AperFunction,ViaPad*%
%ADD21C,0.600000*%
%TD*%
%TA.AperFunction,Conductor*%
%ADD22C,0.200000*%
%TD*%
%TA.AperFunction,Conductor*%
%ADD23C,0.300000*%
%TD*%
G04 APERTURE END LIST*
D10*
%TO.P,U2,1,SDO/SA0*%
%TO.N,+BATT*%
X132337500Y-114662500D03*
%TO.P,U2,2,SDX*%
%TO.N,GND*%
X132337500Y-115162500D03*
%TO.P,U2,3,SCX*%
X132337500Y-115662500D03*
%TO.P,U2,4,INT1*%
%TO.N,/INT1*%
X132337500Y-116162500D03*
D11*
%TO.P,U2,5,VDDIO*%
%TO.N,+BATT*%
X133000000Y-116325000D03*
%TO.P,U2,6,GND*%
%TO.N,GND*%
X133500000Y-116325000D03*
%TO.P,U2,7,GND*%
X134000000Y-116325000D03*
D10*
%TO.P,U2,8,VDD*%
%TO.N,+BATT*%
X134662500Y-116162500D03*
%TO.P,U2,9,INT2*%
%TO.N,/INT2*%
X134662500Y-115662500D03*
%TO.P,U2,10,NC*%
%TO.N,unconnected-(U2-NC-Pad10)*%
X134662500Y-115162500D03*
%TO.P,U2,11,NC*%
%TO.N,unconnected-(U2-NC-Pad11)*%
X134662500Y-114662500D03*
D11*
%TO.P,U2,12,CS*%
%TO.N,+BATT*%
X134000000Y-114500000D03*
%TO.P,U2,13,SCL*%
%TO.N,/SDA*%
X133500000Y-114500000D03*
%TO.P,U2,14,SDA*%
%TO.N,/SCL*%
X133000000Y-114500000D03*
%TD*%
D12*
%TO.P,R3,1*%
%TO.N,+BATT*%
X129995000Y-111000000D03*
%TO.P,R3,2*%
%TO.N,/SDA*%
X131645000Y-111000000D03*
%TD*%
D13*
%TO.P,C2,1*%
%TO.N,+BATT*%
X136725000Y-112500000D03*
%TO.P,C2,2*%
%TO.N,GND*%
X138275000Y-112500000D03*
%TD*%
%TO.P,C3,1*%
%TO.N,+BATT*%
X133225000Y-103000000D03*
%TO.P,C3,2*%
%TO.N,GND*%
X134775000Y-103000000D03*
%TD*%
%TO.P,C1,1*%
%TO.N,+BATT*%
X136725000Y-111000000D03*
%TO.P,C1,2*%
%TO.N,GND*%
X138275000Y-111000000D03*
%TD*%
D12*
%TO.P,R1,1*%
%TO.N,Net-(U1-P0.08)*%
X145675000Y-116000000D03*
%TO.P,R1,2*%
%TO.N,Net-(D1-A)*%
X147325000Y-116000000D03*
%TD*%
D14*
%TO.P,D1,1,K*%
%TO.N,GND*%
X145712500Y-118500000D03*
%TO.P,D1,2,A*%
%TO.N,Net-(D1-A)*%
X147287500Y-118500000D03*
%TD*%
D12*
%TO.P,R2,1*%
%TO.N,+BATT*%
X129995000Y-112500000D03*
%TO.P,R2,2*%
%TO.N,/SCL*%
X131645000Y-112500000D03*
%TD*%
D15*
%TO.P,U1,1,GND*%
%TO.N,GND*%
X118000000Y-106450000D03*
D16*
%TO.P,U1,2,P0.25*%
%TO.N,unconnected-(U1-P0.25-Pad2)*%
X118000000Y-109450000D03*
%TO.P,U1,3,P0.26*%
%TO.N,unconnected-(U1-P0.26-Pad3)*%
X118000000Y-110150000D03*
%TO.P,U1,4,P0.27*%
%TO.N,unconnected-(U1-P0.27-Pad4)*%
X118000000Y-110850000D03*
%TO.P,U1,5,AIN4/P0.28*%
%TO.N,unconnected-(U1-AIN4{slash}P0.28-Pad5)*%
X118000000Y-111550000D03*
%TO.P,U1,6,AIN5/P0.29*%
%TO.N,unconnected-(U1-AIN5{slash}P0.29-Pad6)*%
X118000000Y-112250000D03*
%TO.P,U1,7,AIN6/P0.30*%
%TO.N,unconnected-(U1-AIN6{slash}P0.30-Pad7)*%
X118000000Y-112950000D03*
%TO.P,U1,8,AIN7/P0.31*%
%TO.N,unconnected-(U1-AIN7{slash}P0.31-Pad8)*%
X118000000Y-113650000D03*
%TO.P,U1,9,DEC4*%
%TO.N,unconnected-(U1-DEC4-Pad9)*%
X118000000Y-114350000D03*
%TO.P,U1,10,DCC*%
%TO.N,unconnected-(U1-DCC-Pad10)*%
X118000000Y-115050000D03*
%TO.P,U1,11,VDD*%
%TO.N,+BATT*%
X118000000Y-115750000D03*
D17*
%TO.P,U1,12,GND*%
%TO.N,GND*%
X118400000Y-117850000D03*
%TO.P,U1,13,P0.00/XL1*%
%TO.N,unconnected-(U1-P0.00{slash}XL1-Pad13)*%
X119100000Y-117850000D03*
%TO.P,U1,14,P0.01/XL2*%
%TO.N,unconnected-(U1-P0.01{slash}XL2-Pad14)*%
X119800000Y-117850000D03*
%TO.P,U1,15,AIN0/P0.02*%
%TO.N,/SCL*%
X120500000Y-117850000D03*
%TO.P,U1,16,AIN1/P0.03*%
%TO.N,/SDA*%
X121200000Y-117850000D03*
%TO.P,U1,17,AIN2/P0.04*%
%TO.N,/INT2*%
X121900000Y-117850000D03*
%TO.P,U1,18,AIN3/P0.05*%
%TO.N,/INT1*%
X122600000Y-117850000D03*
%TO.P,U1,19,P0.06*%
%TO.N,unconnected-(U1-P0.06-Pad19)*%
X123300000Y-117850000D03*
%TO.P,U1,20,P0.07*%
%TO.N,unconnected-(U1-P0.07-Pad20)*%
X124000000Y-117850000D03*
%TO.P,U1,21,P0.08*%
%TO.N,Net-(U1-P0.08)*%
X124700000Y-117850000D03*
%TO.P,U1,22,NFC1/P0.09*%
%TO.N,unconnected-(U1-NFC1{slash}P0.09-Pad22)*%
X125400000Y-117850000D03*
%TO.P,U1,23,NFC2/P0.10*%
%TO.N,unconnected-(U1-NFC2{slash}P0.10-Pad23)*%
X126100000Y-117850000D03*
%TO.P,U1,24,GND*%
%TO.N,GND*%
X126800000Y-117850000D03*
D16*
%TO.P,U1,25,P0.11*%
%TO.N,unconnected-(U1-P0.11-Pad25)*%
X127200000Y-116450000D03*
%TO.P,U1,26,P0.12*%
%TO.N,unconnected-(U1-P0.12-Pad26)*%
X127200000Y-115750000D03*
%TO.P,U1,27,P0.13*%
%TO.N,unconnected-(U1-P0.13-Pad27)*%
X127200000Y-115050000D03*
%TO.P,U1,28,TRACEDATA3/P0.14*%
%TO.N,unconnected-(U1-TRACEDATA3{slash}P0.14-Pad28)*%
X127200000Y-114350000D03*
%TO.P,U1,29,TRACEDATA2/P0.15*%
%TO.N,unconnected-(U1-TRACEDATA2{slash}P0.15-Pad29)*%
X127200000Y-113650000D03*
%TO.P,U1,30,TRACEDATA1/P0.16*%
%TO.N,unconnected-(U1-TRACEDATA1{slash}P0.16-Pad30)*%
X127200000Y-112950000D03*
%TO.P,U1,31,P0.17*%
%TO.N,unconnected-(U1-P0.17-Pad31)*%
X127200000Y-112250000D03*
%TO.P,U1,32,TRACEDATA0/P0.18*%
%TO.N,unconnected-(U1-TRACEDATA0{slash}P0.18-Pad32)*%
X127200000Y-111550000D03*
%TO.P,U1,33,P0.19*%
%TO.N,unconnected-(U1-P0.19-Pad33)*%
X127200000Y-110850000D03*
%TO.P,U1,34,TRACECLK/P0.20*%
%TO.N,unconnected-(U1-TRACECLK{slash}P0.20-Pad34)*%
X127200000Y-110150000D03*
%TO.P,U1,35,P0.21/~{RESET}*%
%TO.N,unconnected-(U1-P0.21{slash}~{RESET}-Pad35)*%
X127200000Y-109450000D03*
%TO.P,U1,36,SWDCLK*%
%TO.N,/SWDIO*%
X127200000Y-108750000D03*
%TO.P,U1,37,SWDIO*%
%TO.N,/SWDCLK*%
X127200000Y-108050000D03*
%TO.P,U1,38,P0.22*%
%TO.N,unconnected-(U1-P0.22-Pad38)*%
X127200000Y-107350000D03*
D15*
%TO.P,U1,39,GND*%
%TO.N,GND*%
X127200000Y-106450000D03*
D18*
%TO.P,U1,40,P0.24*%
%TO.N,unconnected-(U1-P0.24-Pad40)*%
X125500000Y-107000000D03*
%TO.P,U1,41,P0.23*%
%TO.N,unconnected-(U1-P0.23-Pad41)*%
X125500000Y-108400000D03*
%TD*%
D19*
%TO.P,J1,1,Pin_1*%
%TO.N,+BATT*%
X140500000Y-100950000D03*
D20*
%TO.P,J1,2,Pin_2*%
%TO.N,/SWDCLK*%
X142500000Y-100950000D03*
%TO.P,J1,3,Pin_3*%
%TO.N,/SWDIO*%
X144500000Y-100950000D03*
%TO.P,J1,4,Pin_4*%
%TO.N,GND*%
X146500000Y-100950000D03*
%TD*%
D21*
%TO.N,+BATT*%
X143000000Y-112000000D03*
X129000000Y-113000000D03*
X141000000Y-105000000D03*
X116625000Y-115375000D03*
%TO.N,GND*%
X118000000Y-119500000D03*
X134000000Y-117500000D03*
X131224265Y-116624265D03*
X128750000Y-106500000D03*
X116000000Y-107000000D03*
X128750000Y-116750000D03*
%TO.N,Net-(U1-P0.08)*%
X127500000Y-118900000D03*
X135000000Y-120500000D03*
%TO.N,/SCL*%
X130431177Y-115153681D03*
X132572500Y-113427500D03*
%TO.N,/SDA*%
X133500000Y-112290775D03*
X130239909Y-114239909D03*
%TO.N,/INT2*%
X136000000Y-115801000D03*
X129000329Y-119533685D03*
%TO.N,/INT1*%
X130750000Y-118750000D03*
X128995206Y-118733699D03*
%TD*%
D22*
%TO.N,+BATT*%
X133000000Y-118000000D02*
X133000000Y-118500000D01*
D23*
X136500000Y-117500000D02*
X135500000Y-118500000D01*
X135000000Y-112500000D02*
X135000000Y-113000000D01*
X129995000Y-111000000D02*
X129000000Y-111000000D01*
X134026000Y-114026000D02*
X134000000Y-114000000D01*
D22*
X133225000Y-104000000D02*
X133225000Y-103000000D01*
X132311500Y-114636500D02*
X132337500Y-114662500D01*
X131336500Y-114636500D02*
X132311500Y-114636500D01*
D23*
X129000000Y-109500000D02*
X129000000Y-111000000D01*
X129500000Y-113500000D02*
X130500000Y-113500000D01*
X131300000Y-114300000D02*
X131300000Y-114600000D01*
D22*
X135162500Y-116162500D02*
X134662500Y-116162500D01*
D23*
X129000000Y-113000000D02*
X129500000Y-113500000D01*
X129000000Y-111000000D02*
X129000000Y-112500000D01*
X137000000Y-115000000D02*
X135000000Y-113000000D01*
X129995000Y-112500000D02*
X129000000Y-112500000D01*
D22*
X136500000Y-117500000D02*
X135162500Y-116162500D01*
X131300000Y-114600000D02*
X131336500Y-114636500D01*
D23*
X141000000Y-105000000D02*
X140500000Y-104500000D01*
X134026000Y-114363942D02*
X134026000Y-114026000D01*
D22*
X133000000Y-116325000D02*
X133000000Y-118000000D01*
D23*
X136725000Y-111000000D02*
X135000000Y-111000000D01*
X135000000Y-109500000D02*
X139500000Y-109500000D01*
X136500000Y-117500000D02*
X137000000Y-117000000D01*
X136725000Y-112500000D02*
X135000000Y-112500000D01*
D22*
X133225000Y-104000000D02*
X133725000Y-104500000D01*
D23*
X117000000Y-115750000D02*
X118000000Y-115750000D01*
X116625000Y-115375000D02*
X117000000Y-115750000D01*
X139500000Y-109500000D02*
X142000000Y-112000000D01*
D22*
X133725000Y-104500000D02*
X140500000Y-104500000D01*
D23*
X129000000Y-112500000D02*
X129000000Y-113000000D01*
X134000000Y-114000000D02*
X135000000Y-113000000D01*
X135000000Y-112500000D02*
X135000000Y-109500000D01*
X130500000Y-113500000D02*
X131300000Y-114300000D01*
X137000000Y-117000000D02*
X137000000Y-115000000D01*
X140500000Y-104500000D02*
X140500000Y-100950000D01*
X135500000Y-118500000D02*
X133000000Y-118500000D01*
X135000000Y-109500000D02*
X129000000Y-109500000D01*
X142000000Y-112000000D02*
X143000000Y-112000000D01*
D22*
%TO.N,GND*%
X131973152Y-115662500D02*
X131224265Y-116411387D01*
D23*
X134000000Y-116325000D02*
X133526000Y-116325000D01*
X127650000Y-117850000D02*
X126800000Y-117850000D01*
X116550000Y-106450000D02*
X116000000Y-107000000D01*
X131224265Y-116624265D02*
X131372265Y-116624265D01*
D22*
X132337500Y-115662500D02*
X132337500Y-115162500D01*
X131224265Y-116411387D02*
X131224265Y-116624265D01*
X128700000Y-106450000D02*
X128750000Y-106500000D01*
D23*
X118000000Y-106450000D02*
X116550000Y-106450000D01*
D22*
X127200000Y-106450000D02*
X128700000Y-106450000D01*
D23*
X134000000Y-116325000D02*
X134000000Y-117500000D01*
X118400000Y-119100000D02*
X118400000Y-117850000D01*
D22*
X132337500Y-115662500D02*
X131973152Y-115662500D01*
D23*
X133526000Y-116351000D02*
X133526000Y-116325000D01*
X118000000Y-119500000D02*
X118400000Y-119100000D01*
X128750000Y-116750000D02*
X127650000Y-117850000D01*
D22*
%TO.N,Net-(D1-A)*%
X148325000Y-118462500D02*
X148287500Y-118500000D01*
X148325000Y-116000000D02*
X148325000Y-118462500D01*
X148287500Y-118500000D02*
X147287500Y-118500000D01*
X148325000Y-116000000D02*
X147325000Y-116000000D01*
%TO.N,/SWDCLK*%
X131500000Y-106500000D02*
X129950000Y-108050000D01*
X129950000Y-108050000D02*
X127200000Y-108050000D01*
X140500000Y-106500000D02*
X131500000Y-106500000D01*
X142500000Y-100950000D02*
X142500000Y-104500000D01*
X142500000Y-104500000D02*
X140500000Y-106500000D01*
%TO.N,/SWDIO*%
X130250000Y-108750000D02*
X132000000Y-107000000D01*
X127200000Y-108750000D02*
X130250000Y-108750000D01*
X141000000Y-107000000D02*
X144500000Y-103500000D01*
X144500000Y-103500000D02*
X144500000Y-100950000D01*
X132000000Y-107000000D02*
X141000000Y-107000000D01*
%TO.N,Net-(U1-P0.08)*%
X124948000Y-118900000D02*
X127500000Y-118900000D01*
X135000000Y-120500000D02*
X139500000Y-120500000D01*
X124700000Y-118652000D02*
X124948000Y-118900000D01*
X124700000Y-117850000D02*
X124700000Y-118652000D01*
X139500000Y-120500000D02*
X144000000Y-116000000D01*
X144000000Y-116000000D02*
X145675000Y-116000000D01*
%TO.N,/SCL*%
X132572500Y-113427500D02*
X133000000Y-113855000D01*
X130052001Y-115532857D02*
X130431177Y-115153681D01*
X130052001Y-120016514D02*
X129465044Y-120603471D01*
X120699000Y-118851000D02*
X120699000Y-118816100D01*
X122882900Y-121000000D02*
X120733900Y-118851000D01*
X120699000Y-118816100D02*
X120500000Y-118617100D01*
X129067100Y-121000000D02*
X122882900Y-121000000D01*
X133000000Y-113855000D02*
X133000000Y-114500000D01*
X120733900Y-118851000D02*
X120699000Y-118851000D01*
X130052001Y-120016514D02*
X130052001Y-115532857D01*
X129465044Y-120603471D02*
X129463629Y-120603471D01*
X131645000Y-112500000D02*
X132572500Y-113427500D01*
X129463629Y-120603471D02*
X129067100Y-121000000D01*
X120500000Y-118617100D02*
X120500000Y-117850000D01*
%TO.N,/SDA*%
X132500000Y-111000000D02*
X131645000Y-111000000D01*
X129298944Y-120202471D02*
X129651001Y-119850414D01*
X129000000Y-120500000D02*
X129297529Y-120202471D01*
X121200000Y-117850000D02*
X121200000Y-118750000D01*
X129651001Y-119850414D02*
X129651001Y-114828817D01*
X121200000Y-118750000D02*
X122950000Y-120500000D01*
X122950000Y-120500000D02*
X129000000Y-120500000D01*
X133500000Y-112290775D02*
X133500000Y-112000000D01*
X133500000Y-112290775D02*
X133500000Y-114500000D01*
X129651001Y-114828817D02*
X130239909Y-114239909D01*
X129297529Y-120202471D02*
X129298944Y-120202471D01*
X133500000Y-112000000D02*
X132500000Y-111000000D01*
%TO.N,/INT2*%
X129049999Y-119583355D02*
X129049999Y-119601471D01*
X123150000Y-120000000D02*
X121900000Y-118750000D01*
X136000000Y-115801000D02*
X135861500Y-115662500D01*
X121900000Y-118750000D02*
X121900000Y-117850000D01*
X135861500Y-115662500D02*
X134662500Y-115662500D01*
X128651470Y-120000000D02*
X123150000Y-120000000D01*
X129000329Y-119533685D02*
X129049999Y-119583355D01*
X129049999Y-119601471D02*
X128651470Y-120000000D01*
%TO.N,/INT1*%
X122600000Y-118750000D02*
X122600000Y-117850000D01*
X132337500Y-116162500D02*
X132337500Y-117162500D01*
X123350000Y-119500000D02*
X122600000Y-118750000D01*
X128995206Y-118733699D02*
X128796220Y-118932685D01*
X128796220Y-118932685D02*
X128751386Y-118932685D01*
X132337500Y-117162500D02*
X130750000Y-118750000D01*
X128500000Y-119148527D02*
X128148527Y-119500000D01*
X128751386Y-118932685D02*
X128535544Y-119148527D01*
X128148527Y-119500000D02*
X123350000Y-119500000D01*
X128535544Y-119148527D02*
X128500000Y-119148527D01*
%TD*%
%TA.AperFunction,Conductor*%
%TO.N,GND*%
G36*
X149442539Y-96020185D02*
G01*
X149488294Y-96072989D01*
X149499500Y-96124500D01*
X149499500Y-121875500D01*
X149479815Y-121942539D01*
X149427011Y-121988294D01*
X149375500Y-121999500D01*
X115624500Y-121999500D01*
X115557461Y-121979815D01*
X115511706Y-121927011D01*
X115500500Y-121875500D01*
X115500500Y-106897844D01*
X116800000Y-106897844D01*
X116806401Y-106957372D01*
X116806403Y-106957379D01*
X116856645Y-107092086D01*
X116856649Y-107092093D01*
X116942809Y-107207187D01*
X116942812Y-107207190D01*
X117057906Y-107293350D01*
X117057913Y-107293354D01*
X117192620Y-107343596D01*
X117192627Y-107343598D01*
X117252155Y-107349999D01*
X117252172Y-107350000D01*
X117750000Y-107350000D01*
X118250000Y-107350000D01*
X118747828Y-107350000D01*
X118747844Y-107349999D01*
X118807372Y-107343598D01*
X118807379Y-107343596D01*
X118942086Y-107293354D01*
X118942093Y-107293350D01*
X119057187Y-107207190D01*
X119057190Y-107207187D01*
X119143350Y-107092093D01*
X119143354Y-107092086D01*
X119193596Y-106957379D01*
X119193598Y-106957372D01*
X119199999Y-106897844D01*
X119200000Y-106897827D01*
X119200000Y-106700000D01*
X118250000Y-106700000D01*
X118250000Y-107350000D01*
X117750000Y-107350000D01*
X117750000Y-106700000D01*
X116800000Y-106700000D01*
X116800000Y-106897844D01*
X115500500Y-106897844D01*
X115500500Y-106172162D01*
X115520185Y-106105123D01*
X115572989Y-106059368D01*
X115624132Y-106048163D01*
X116543755Y-106045459D01*
X116548363Y-106045531D01*
X116600000Y-106047309D01*
X116600000Y-106050000D01*
X116678147Y-106050000D01*
X116680267Y-106050073D01*
X116711504Y-106060425D01*
X116743039Y-106069685D01*
X116744486Y-106071356D01*
X116746590Y-106072053D01*
X116767271Y-106097650D01*
X116788794Y-106122489D01*
X116789330Y-106124952D01*
X116790500Y-106126401D01*
X116791355Y-106134263D01*
X116800000Y-106174000D01*
X116800000Y-106200000D01*
X119200000Y-106200000D01*
X119200000Y-106174000D01*
X119219685Y-106106961D01*
X119272489Y-106061206D01*
X119324000Y-106050000D01*
X121976000Y-106050000D01*
X122043039Y-106069685D01*
X122088794Y-106122489D01*
X122100000Y-106174000D01*
X122100000Y-109150000D01*
X125875500Y-109150000D01*
X125942539Y-109169685D01*
X125988294Y-109222489D01*
X125999500Y-109274000D01*
X125999500Y-109697870D01*
X125999501Y-109697876D01*
X126005908Y-109757479D01*
X126007692Y-109765026D01*
X126006229Y-109765371D01*
X126010585Y-109826371D01*
X126006173Y-109841396D01*
X126005908Y-109842517D01*
X125999501Y-109902117D01*
X125999501Y-109902123D01*
X125999500Y-109902136D01*
X125999500Y-110397870D01*
X125999501Y-110397876D01*
X126005908Y-110457479D01*
X126007692Y-110465026D01*
X126006229Y-110465371D01*
X126010585Y-110526371D01*
X126006173Y-110541396D01*
X126005908Y-110542517D01*
X125999501Y-110602117D01*
X125999501Y-110602123D01*
X125999500Y-110602136D01*
X125999500Y-111097870D01*
X125999501Y-111097876D01*
X126005908Y-111157479D01*
X126007692Y-111165026D01*
X126006229Y-111165371D01*
X126010585Y-111226371D01*
X126006173Y-111241396D01*
X126005908Y-111242517D01*
X125999501Y-111302117D01*
X125999501Y-111302123D01*
X125999500Y-111302136D01*
X125999500Y-111797870D01*
X125999501Y-111797876D01*
X126005908Y-111857479D01*
X126007692Y-111865026D01*
X126006229Y-111865371D01*
X126010585Y-111926371D01*
X126006173Y-111941396D01*
X126005908Y-111942517D01*
X125999501Y-112002117D01*
X125999501Y-112002123D01*
X125999500Y-112002136D01*
X125999500Y-112497870D01*
X125999501Y-112497876D01*
X126005908Y-112557479D01*
X126007692Y-112565026D01*
X126006229Y-112565371D01*
X126010585Y-112626371D01*
X126006173Y-112641396D01*
X126005908Y-112642517D01*
X125999501Y-112702117D01*
X125999501Y-112702123D01*
X125999500Y-112702136D01*
X125999500Y-113197870D01*
X125999501Y-113197876D01*
X126005908Y-113257479D01*
X126007692Y-113265026D01*
X126006229Y-113265371D01*
X126010585Y-113326371D01*
X126006173Y-113341396D01*
X126005908Y-113342517D01*
X125999501Y-113402117D01*
X125999501Y-113402123D01*
X125999500Y-113402136D01*
X125999500Y-113897870D01*
X125999501Y-113897876D01*
X126005908Y-113957479D01*
X126007692Y-113965026D01*
X126006229Y-113965371D01*
X126010585Y-114026371D01*
X126006173Y-114041396D01*
X126005908Y-114042517D01*
X125999501Y-114102116D01*
X125999501Y-114102123D01*
X125999500Y-114102136D01*
X125999500Y-114597870D01*
X125999501Y-114597876D01*
X126005908Y-114657479D01*
X126007692Y-114665026D01*
X126006229Y-114665371D01*
X126010585Y-114726371D01*
X126006173Y-114741396D01*
X126005908Y-114742517D01*
X126000961Y-114788540D01*
X125999501Y-114802123D01*
X125999500Y-114802136D01*
X125999500Y-115297870D01*
X125999501Y-115297876D01*
X126005908Y-115357479D01*
X126007692Y-115365026D01*
X126006229Y-115365371D01*
X126010585Y-115426371D01*
X126006173Y-115441396D01*
X126005908Y-115442517D01*
X126000651Y-115491417D01*
X125999501Y-115502123D01*
X125999500Y-115502136D01*
X125999500Y-115997870D01*
X125999501Y-115997876D01*
X126005908Y-116057479D01*
X126007692Y-116065026D01*
X126006229Y-116065371D01*
X126010585Y-116126371D01*
X126006173Y-116141396D01*
X126005908Y-116142517D01*
X125999501Y-116202116D01*
X125999501Y-116202123D01*
X125999500Y-116202135D01*
X125999500Y-116525500D01*
X125998914Y-116527494D01*
X125999435Y-116529507D01*
X125989113Y-116560873D01*
X125979815Y-116592539D01*
X125978245Y-116593899D01*
X125977595Y-116595875D01*
X125951943Y-116616689D01*
X125927011Y-116638294D01*
X125924446Y-116639002D01*
X125923340Y-116639900D01*
X125915494Y-116641474D01*
X125889172Y-116648744D01*
X125882349Y-116649500D01*
X125852128Y-116649501D01*
X125792517Y-116655909D01*
X125778941Y-116660972D01*
X125763672Y-116662666D01*
X125743776Y-116659145D01*
X125723622Y-116660584D01*
X125708600Y-116656172D01*
X125707482Y-116655908D01*
X125647882Y-116649501D01*
X125647873Y-116649500D01*
X125647863Y-116649500D01*
X125152129Y-116649500D01*
X125152123Y-116649501D01*
X125092520Y-116655908D01*
X125084974Y-116657692D01*
X125084628Y-116656230D01*
X125023622Y-116660584D01*
X125008600Y-116656172D01*
X125007482Y-116655908D01*
X124947882Y-116649501D01*
X124947873Y-116649500D01*
X124947863Y-116649500D01*
X124452129Y-116649500D01*
X124452123Y-116649501D01*
X124392520Y-116655908D01*
X124384974Y-116657692D01*
X124384628Y-116656230D01*
X124323622Y-116660584D01*
X124308600Y-116656172D01*
X124307482Y-116655908D01*
X124247882Y-116649501D01*
X124247873Y-116649500D01*
X124247863Y-116649500D01*
X123752129Y-116649500D01*
X123752123Y-116649501D01*
X123692520Y-116655908D01*
X123684974Y-116657692D01*
X123684628Y-116656230D01*
X123623622Y-116660584D01*
X123608600Y-116656172D01*
X123607482Y-116655908D01*
X123547882Y-116649501D01*
X123547873Y-116649500D01*
X123547863Y-116649500D01*
X123052129Y-116649500D01*
X123052123Y-116649501D01*
X122992520Y-116655908D01*
X122984974Y-116657692D01*
X122984628Y-116656230D01*
X122923622Y-116660584D01*
X122908600Y-116656172D01*
X122907482Y-116655908D01*
X122847882Y-116649501D01*
X122847873Y-116649500D01*
X122847863Y-116649500D01*
X122352129Y-116649500D01*
X122352123Y-116649501D01*
X122292520Y-116655908D01*
X122284974Y-116657692D01*
X122284628Y-116656230D01*
X122223622Y-116660584D01*
X122208600Y-116656172D01*
X122207482Y-116655908D01*
X122147882Y-116649501D01*
X122147873Y-116649500D01*
X122147863Y-116649500D01*
X121652129Y-116649500D01*
X121652123Y-116649501D01*
X121592520Y-116655908D01*
X121584974Y-116657692D01*
X121584628Y-116656230D01*
X121523622Y-116660584D01*
X121508600Y-116656172D01*
X121507482Y-116655908D01*
X121447882Y-116649501D01*
X121447873Y-116649500D01*
X121447863Y-116649500D01*
X120952129Y-116649500D01*
X120952123Y-116649501D01*
X120892520Y-116655908D01*
X120884974Y-116657692D01*
X120884628Y-116656230D01*
X120823622Y-116660584D01*
X120808600Y-116656172D01*
X120807482Y-116655908D01*
X120747882Y-116649501D01*
X120747873Y-116649500D01*
X120747863Y-116649500D01*
X120252129Y-116649500D01*
X120252123Y-116649501D01*
X120192520Y-116655908D01*
X120184974Y-116657692D01*
X120184628Y-116656230D01*
X120123622Y-116660584D01*
X120108600Y-116656172D01*
X120107482Y-116655908D01*
X120047882Y-116649501D01*
X120047873Y-116649500D01*
X120047863Y-116649500D01*
X119552129Y-116649500D01*
X119552123Y-116649501D01*
X119492520Y-116655908D01*
X119484974Y-116657692D01*
X119484628Y-116656230D01*
X119423622Y-116660584D01*
X119408600Y-116656172D01*
X119407482Y-116655908D01*
X119347882Y-116649501D01*
X119347873Y-116649500D01*
X119347863Y-116649500D01*
X118944046Y-116649500D01*
X118877007Y-116629815D01*
X118831252Y-116577011D01*
X118821308Y-116507853D01*
X118850333Y-116444297D01*
X118900712Y-116409318D01*
X118942331Y-116393796D01*
X119057546Y-116307546D01*
X119143796Y-116192331D01*
X119194091Y-116057483D01*
X119200500Y-115997873D01*
X119200499Y-115502128D01*
X119194091Y-115442517D01*
X119194090Y-115442515D01*
X119194090Y-115442512D01*
X119192308Y-115434969D01*
X119193773Y-115434622D01*
X119189409Y-115373651D01*
X119193819Y-115358633D01*
X119194089Y-115357488D01*
X119194088Y-115357488D01*
X119194091Y-115357483D01*
X119200500Y-115297873D01*
X119200499Y-114802128D01*
X119194091Y-114742517D01*
X119194090Y-114742515D01*
X119194090Y-114742512D01*
X119192308Y-114734969D01*
X119193773Y-114734622D01*
X119189409Y-114673651D01*
X119193819Y-114658633D01*
X119194089Y-114657488D01*
X119194088Y-114657488D01*
X119194091Y-114657483D01*
X119200500Y-114597873D01*
X119200499Y-114102128D01*
X119194091Y-114042517D01*
X119194090Y-114042515D01*
X119194090Y-114042512D01*
X119192308Y-114034969D01*
X119193773Y-114034622D01*
X119189409Y-113973651D01*
X119193819Y-113958633D01*
X119194089Y-113957488D01*
X119194088Y-113957488D01*
X119194091Y-113957483D01*
X119200500Y-113897873D01*
X119200499Y-113402128D01*
X119194091Y-113342517D01*
X119194090Y-113342515D01*
X119194090Y-113342512D01*
X119192308Y-113334969D01*
X119193773Y-113334622D01*
X119189409Y-113273651D01*
X119193819Y-113258633D01*
X119194089Y-113257488D01*
X119194088Y-113257488D01*
X119194091Y-113257483D01*
X119200500Y-113197873D01*
X119200499Y-112702128D01*
X119194091Y-112642517D01*
X119194090Y-112642515D01*
X119194090Y-112642512D01*
X119192308Y-112634969D01*
X119193773Y-112634622D01*
X119189409Y-112573651D01*
X119193819Y-112558633D01*
X119194089Y-112557488D01*
X119194088Y-112557488D01*
X119194091Y-112557483D01*
X119200500Y-112497873D01*
X119200499Y-112002128D01*
X119194091Y-111942517D01*
X119194090Y-111942515D01*
X119194090Y-111942512D01*
X119192308Y-111934969D01*
X119193773Y-111934622D01*
X119189409Y-111873651D01*
X119193819Y-111858633D01*
X119194089Y-111857488D01*
X119194088Y-111857488D01*
X119194091Y-111857483D01*
X119200500Y-111797873D01*
X119200499Y-111302128D01*
X119194091Y-111242517D01*
X119194090Y-111242515D01*
X119194090Y-111242512D01*
X119192308Y-111234969D01*
X119193773Y-111234622D01*
X119189409Y-111173651D01*
X119193819Y-111158633D01*
X119194089Y-111157488D01*
X119194088Y-111157488D01*
X119194091Y-111157483D01*
X119200500Y-111097873D01*
X119200499Y-110602128D01*
X119194091Y-110542517D01*
X119194090Y-110542515D01*
X119194090Y-110542512D01*
X119192308Y-110534969D01*
X119193773Y-110534622D01*
X119189409Y-110473651D01*
X119193819Y-110458633D01*
X119194089Y-110457488D01*
X119194088Y-110457488D01*
X119194091Y-110457483D01*
X119200500Y-110397873D01*
X119200499Y-109902128D01*
X119194091Y-109842517D01*
X119194090Y-109842515D01*
X119194090Y-109842512D01*
X119192308Y-109834969D01*
X119193773Y-109834622D01*
X119189409Y-109773651D01*
X119193819Y-109758633D01*
X119194089Y-109757488D01*
X119194088Y-109757488D01*
X119194091Y-109757483D01*
X119200500Y-109697873D01*
X119200499Y-109202128D01*
X119194091Y-109142517D01*
X119143796Y-109007669D01*
X119143795Y-109007668D01*
X119143793Y-109007664D01*
X119057547Y-108892455D01*
X119057544Y-108892452D01*
X118942335Y-108806206D01*
X118942328Y-108806202D01*
X118807482Y-108755908D01*
X118807483Y-108755908D01*
X118747883Y-108749501D01*
X118747881Y-108749500D01*
X118747873Y-108749500D01*
X118747864Y-108749500D01*
X117252129Y-108749500D01*
X117252123Y-108749501D01*
X117192516Y-108755908D01*
X117057671Y-108806202D01*
X117057664Y-108806206D01*
X116942455Y-108892452D01*
X116942452Y-108892455D01*
X116856206Y-109007664D01*
X116856202Y-109007671D01*
X116805910Y-109142513D01*
X116805909Y-109142517D01*
X116799500Y-109202127D01*
X116799500Y-109202134D01*
X116799500Y-109202135D01*
X116799500Y-109697870D01*
X116799501Y-109697876D01*
X116805908Y-109757479D01*
X116807692Y-109765026D01*
X116806229Y-109765371D01*
X116810585Y-109826371D01*
X116806173Y-109841396D01*
X116805908Y-109842517D01*
X116799501Y-109902117D01*
X116799501Y-109902123D01*
X116799500Y-109902136D01*
X116799500Y-110397870D01*
X116799501Y-110397876D01*
X116805908Y-110457479D01*
X116807692Y-110465026D01*
X116806229Y-110465371D01*
X116810585Y-110526371D01*
X116806173Y-110541396D01*
X116805908Y-110542517D01*
X116799501Y-110602117D01*
X116799501Y-110602123D01*
X116799500Y-110602136D01*
X116799500Y-111097870D01*
X116799501Y-111097876D01*
X116805908Y-111157479D01*
X116807692Y-111165026D01*
X116806229Y-111165371D01*
X116810585Y-111226371D01*
X116806173Y-111241396D01*
X116805908Y-111242517D01*
X116799501Y-111302117D01*
X116799501Y-111302123D01*
X116799500Y-111302136D01*
X116799500Y-111797870D01*
X116799501Y-111797876D01*
X116805908Y-111857479D01*
X116807692Y-111865026D01*
X116806229Y-111865371D01*
X116810585Y-111926371D01*
X116806173Y-111941396D01*
X116805908Y-111942517D01*
X116799501Y-112002117D01*
X116799501Y-112002123D01*
X116799500Y-112002136D01*
X116799500Y-112497870D01*
X116799501Y-112497876D01*
X116805908Y-112557479D01*
X116807692Y-112565026D01*
X116806229Y-112565371D01*
X116810585Y-112626371D01*
X116806173Y-112641396D01*
X116805908Y-112642517D01*
X116799501Y-112702117D01*
X116799501Y-112702123D01*
X116799500Y-112702136D01*
X116799500Y-113197870D01*
X116799501Y-113197876D01*
X116805908Y-113257479D01*
X116807692Y-113265026D01*
X116806229Y-113265371D01*
X116810585Y-113326371D01*
X116806173Y-113341396D01*
X116805908Y-113342517D01*
X116799501Y-113402117D01*
X116799501Y-113402123D01*
X116799500Y-113402136D01*
X116799500Y-113897870D01*
X116799501Y-113897876D01*
X116805908Y-113957479D01*
X116807692Y-113965026D01*
X116806229Y-113965371D01*
X116810585Y-114026371D01*
X116806173Y-114041396D01*
X116805908Y-114042517D01*
X116799501Y-114102116D01*
X116799501Y-114102123D01*
X116799500Y-114102135D01*
X116799500Y-114450500D01*
X116779815Y-114517539D01*
X116727011Y-114563294D01*
X116675500Y-114574500D01*
X116546155Y-114574500D01*
X116391510Y-114605261D01*
X116391498Y-114605264D01*
X116245827Y-114665602D01*
X116245814Y-114665609D01*
X116114711Y-114753210D01*
X116114707Y-114753213D01*
X116003213Y-114864707D01*
X116003210Y-114864711D01*
X115915609Y-114995814D01*
X115915602Y-114995827D01*
X115855264Y-115141498D01*
X115855261Y-115141510D01*
X115824500Y-115296153D01*
X115824500Y-115453846D01*
X115855261Y-115608489D01*
X115855264Y-115608501D01*
X115915602Y-115754172D01*
X115915609Y-115754185D01*
X116003210Y-115885288D01*
X116003213Y-115885292D01*
X116114707Y-115996786D01*
X116114711Y-115996789D01*
X116245814Y-116084390D01*
X116245827Y-116084397D01*
X116333230Y-116120599D01*
X116391503Y-116144737D01*
X116458580Y-116158079D01*
X116520488Y-116190461D01*
X116522012Y-116191958D01*
X116585330Y-116255276D01*
X116663559Y-116307547D01*
X116669160Y-116311289D01*
X116669161Y-116311290D01*
X116669160Y-116311290D01*
X116691871Y-116326464D01*
X116691872Y-116326464D01*
X116691873Y-116326465D01*
X116810256Y-116375501D01*
X116810260Y-116375501D01*
X116810261Y-116375502D01*
X116935928Y-116400500D01*
X116935931Y-116400500D01*
X117053271Y-116400500D01*
X117096604Y-116408318D01*
X117192517Y-116444091D01*
X117192516Y-116444091D01*
X117199444Y-116444835D01*
X117252127Y-116450500D01*
X117957383Y-116450499D01*
X118024421Y-116470183D01*
X118070176Y-116522987D01*
X118080120Y-116592146D01*
X118051095Y-116655702D01*
X118000716Y-116690680D01*
X117957918Y-116706643D01*
X117957906Y-116706649D01*
X117842812Y-116792809D01*
X117842809Y-116792812D01*
X117756649Y-116907906D01*
X117756645Y-116907913D01*
X117706403Y-117042620D01*
X117706401Y-117042627D01*
X117700000Y-117102155D01*
X117700000Y-117650000D01*
X118275500Y-117650000D01*
X118342539Y-117669685D01*
X118388294Y-117722489D01*
X118399500Y-117774000D01*
X118399500Y-117950138D01*
X118379815Y-118017177D01*
X118327011Y-118062932D01*
X118257853Y-118072876D01*
X118207761Y-118050000D01*
X117700000Y-118050000D01*
X117700000Y-118597844D01*
X117706401Y-118657372D01*
X117706403Y-118657379D01*
X117756645Y-118792086D01*
X117756649Y-118792093D01*
X117842809Y-118907187D01*
X117842812Y-118907190D01*
X117957906Y-118993350D01*
X117957913Y-118993354D01*
X118092620Y-119043596D01*
X118092627Y-119043598D01*
X118152155Y-119049999D01*
X118152172Y-119050000D01*
X118200000Y-119050000D01*
X118200000Y-118792707D01*
X118219685Y-118725668D01*
X118272489Y-118679913D01*
X118341647Y-118669969D01*
X118405203Y-118698994D01*
X118440182Y-118749375D01*
X118456201Y-118792326D01*
X118456203Y-118792329D01*
X118456204Y-118792331D01*
X118485314Y-118831217D01*
X118538738Y-118902583D01*
X118542454Y-118907546D01*
X118550308Y-118913425D01*
X118592180Y-118969356D01*
X118600000Y-119012694D01*
X118600000Y-119050000D01*
X118647828Y-119050000D01*
X118647844Y-119049999D01*
X118707375Y-119043598D01*
X118714926Y-119041814D01*
X118715315Y-119043462D01*
X118775624Y-119039140D01*
X118792387Y-119044060D01*
X118792511Y-119044088D01*
X118792517Y-119044091D01*
X118852127Y-119050500D01*
X119347872Y-119050499D01*
X119407483Y-119044091D01*
X119407485Y-119044090D01*
X119407487Y-119044090D01*
X119415031Y-119042308D01*
X119415377Y-119043775D01*
X119476342Y-119039408D01*
X119491378Y-119043822D01*
X119492511Y-119044089D01*
X119492517Y-119044091D01*
X119552127Y-119050500D01*
X120032801Y-119050499D01*
X120062242Y-119059143D01*
X120092225Y-119065665D01*
X120097240Y-119069419D01*
X120099840Y-119070183D01*
X120120474Y-119086810D01*
X120131284Y-119097620D01*
X120131286Y-119097621D01*
X120138354Y-119104689D01*
X120159260Y-119125595D01*
X120178966Y-119151276D01*
X120218477Y-119219712D01*
X120218479Y-119219715D01*
X120218480Y-119219716D01*
X120330284Y-119331520D01*
X120398722Y-119371032D01*
X120424404Y-119390739D01*
X122398039Y-121364374D01*
X122398049Y-121364385D01*
X122402379Y-121368715D01*
X122402380Y-121368716D01*
X122514184Y-121480520D01*
X122600995Y-121530639D01*
X122600997Y-121530641D01*
X122639051Y-121552611D01*
X122651115Y-121559577D01*
X122803843Y-121600501D01*
X122803846Y-121600501D01*
X122969553Y-121600501D01*
X122969569Y-121600500D01*
X128980431Y-121600500D01*
X128980447Y-121600501D01*
X128988043Y-121600501D01*
X129146154Y-121600501D01*
X129146157Y-121600501D01*
X129298885Y-121559577D01*
X129349004Y-121530639D01*
X129435816Y-121480520D01*
X129547620Y-121368716D01*
X129547621Y-121368714D01*
X129822163Y-121094172D01*
X129822402Y-121093934D01*
X129830623Y-121085801D01*
X129833760Y-121083991D01*
X129945564Y-120972187D01*
X129945565Y-120972185D01*
X130496598Y-120421153D01*
X134199500Y-120421153D01*
X134199500Y-120578846D01*
X134230261Y-120733489D01*
X134230264Y-120733501D01*
X134290602Y-120879172D01*
X134290609Y-120879185D01*
X134378210Y-121010288D01*
X134378213Y-121010292D01*
X134489707Y-121121786D01*
X134489711Y-121121789D01*
X134620814Y-121209390D01*
X134620827Y-121209397D01*
X134766498Y-121269735D01*
X134766503Y-121269737D01*
X134921153Y-121300499D01*
X134921156Y-121300500D01*
X134921158Y-121300500D01*
X135078844Y-121300500D01*
X135078845Y-121300499D01*
X135233497Y-121269737D01*
X135379179Y-121209394D01*
X135379185Y-121209390D01*
X135510875Y-121121398D01*
X135577553Y-121100520D01*
X135579766Y-121100500D01*
X139413331Y-121100500D01*
X139413347Y-121100501D01*
X139420943Y-121100501D01*
X139579054Y-121100501D01*
X139579057Y-121100501D01*
X139731785Y-121059577D01*
X139781904Y-121030639D01*
X139868716Y-120980520D01*
X139980520Y-120868716D01*
X139980520Y-120868714D01*
X139990728Y-120858507D01*
X139990729Y-120858504D01*
X142045082Y-118804152D01*
X144775001Y-118804152D01*
X144785056Y-118902583D01*
X144837906Y-119062072D01*
X144837908Y-119062077D01*
X144926114Y-119205080D01*
X145044919Y-119323885D01*
X145187922Y-119412091D01*
X145187927Y-119412093D01*
X145347416Y-119464942D01*
X145445856Y-119474999D01*
X145462500Y-119474998D01*
X145462500Y-118750000D01*
X144775001Y-118750000D01*
X144775001Y-118804152D01*
X142045082Y-118804152D01*
X142653385Y-118195849D01*
X144775000Y-118195849D01*
X144775000Y-118250000D01*
X145462500Y-118250000D01*
X145462500Y-117524999D01*
X145445856Y-117525000D01*
X145347415Y-117535057D01*
X145187927Y-117587906D01*
X145187922Y-117587908D01*
X145044919Y-117676114D01*
X144926114Y-117794919D01*
X144837908Y-117937922D01*
X144837906Y-117937927D01*
X144785057Y-118097416D01*
X144775000Y-118195849D01*
X142653385Y-118195849D01*
X144212416Y-116636819D01*
X144273739Y-116603334D01*
X144300097Y-116600500D01*
X144783285Y-116600500D01*
X144850324Y-116620185D01*
X144889401Y-116660349D01*
X144919471Y-116710091D01*
X144919530Y-116710188D01*
X145039811Y-116830469D01*
X145039813Y-116830470D01*
X145039815Y-116830472D01*
X145185394Y-116918478D01*
X145347804Y-116969086D01*
X145418384Y-116975500D01*
X145418387Y-116975500D01*
X145931613Y-116975500D01*
X145931616Y-116975500D01*
X146002196Y-116969086D01*
X146164606Y-116918478D01*
X146310185Y-116830472D01*
X146348203Y-116792454D01*
X146412319Y-116728339D01*
X146473642Y-116694854D01*
X146543334Y-116699838D01*
X146587681Y-116728339D01*
X146689811Y-116830469D01*
X146689813Y-116830470D01*
X146689815Y-116830472D01*
X146835394Y-116918478D01*
X146997804Y-116969086D01*
X147068384Y-116975500D01*
X147068387Y-116975500D01*
X147581607Y-116975500D01*
X147581616Y-116975500D01*
X147589277Y-116974803D01*
X147657819Y-116988337D01*
X147708167Y-117036781D01*
X147724500Y-117098294D01*
X147724500Y-117404587D01*
X147704815Y-117471626D01*
X147652011Y-117517381D01*
X147587898Y-117527945D01*
X147554183Y-117524500D01*
X147554174Y-117524500D01*
X147020826Y-117524500D01*
X147020818Y-117524500D01*
X146922316Y-117534563D01*
X146922315Y-117534564D01*
X146868716Y-117552325D01*
X146762715Y-117587450D01*
X146762704Y-117587455D01*
X146619612Y-117675716D01*
X146619607Y-117675719D01*
X146587327Y-117708000D01*
X146526003Y-117741485D01*
X146456312Y-117736499D01*
X146411967Y-117708000D01*
X146380080Y-117676114D01*
X146237077Y-117587908D01*
X146237072Y-117587906D01*
X146077583Y-117535057D01*
X145979150Y-117525000D01*
X145962500Y-117525000D01*
X145962500Y-119474999D01*
X145979136Y-119474999D01*
X145979152Y-119474998D01*
X146077583Y-119464943D01*
X146237072Y-119412093D01*
X146237077Y-119412091D01*
X146380080Y-119323885D01*
X146411966Y-119292000D01*
X146473289Y-119258515D01*
X146542981Y-119263499D01*
X146587328Y-119292000D01*
X146619608Y-119324280D01*
X146619612Y-119324283D01*
X146762704Y-119412544D01*
X146762707Y-119412545D01*
X146762713Y-119412549D01*
X146922315Y-119465436D01*
X147020826Y-119475500D01*
X147020831Y-119475500D01*
X147554169Y-119475500D01*
X147554174Y-119475500D01*
X147652685Y-119465436D01*
X147812287Y-119412549D01*
X147955391Y-119324281D01*
X148074281Y-119205391D01*
X148085849Y-119186636D01*
X148102647Y-119159404D01*
X148154595Y-119112679D01*
X148208185Y-119100501D01*
X148366554Y-119100501D01*
X148366557Y-119100501D01*
X148519285Y-119059577D01*
X148581952Y-119023396D01*
X148656216Y-118980520D01*
X148768020Y-118868716D01*
X148805520Y-118831216D01*
X148880757Y-118700901D01*
X148884577Y-118694285D01*
X148925501Y-118541557D01*
X148925501Y-118383443D01*
X148925501Y-118375848D01*
X148925500Y-118375830D01*
X148925500Y-115920945D01*
X148925500Y-115920943D01*
X148884577Y-115768216D01*
X148824393Y-115663973D01*
X148805524Y-115631290D01*
X148805518Y-115631282D01*
X148693717Y-115519481D01*
X148693709Y-115519475D01*
X148556790Y-115440426D01*
X148556786Y-115440424D01*
X148556784Y-115440423D01*
X148404057Y-115399500D01*
X148404056Y-115399500D01*
X148216715Y-115399500D01*
X148149676Y-115379815D01*
X148110598Y-115339650D01*
X148080472Y-115289815D01*
X148080470Y-115289813D01*
X148080469Y-115289811D01*
X147960188Y-115169530D01*
X147814606Y-115081522D01*
X147751956Y-115062000D01*
X147652196Y-115030914D01*
X147652194Y-115030913D01*
X147652192Y-115030913D01*
X147602778Y-115026423D01*
X147581616Y-115024500D01*
X147068384Y-115024500D01*
X147049145Y-115026248D01*
X146997807Y-115030913D01*
X146835393Y-115081522D01*
X146689811Y-115169530D01*
X146689810Y-115169531D01*
X146587681Y-115271661D01*
X146526358Y-115305146D01*
X146456666Y-115300162D01*
X146412319Y-115271661D01*
X146310188Y-115169530D01*
X146164606Y-115081522D01*
X146101956Y-115062000D01*
X146002196Y-115030914D01*
X146002194Y-115030913D01*
X146002192Y-115030913D01*
X145952778Y-115026423D01*
X145931616Y-115024500D01*
X145418384Y-115024500D01*
X145399145Y-115026248D01*
X145347807Y-115030913D01*
X145185393Y-115081522D01*
X145039811Y-115169530D01*
X144919530Y-115289811D01*
X144903255Y-115316733D01*
X144897281Y-115326617D01*
X144889402Y-115339650D01*
X144837874Y-115386838D01*
X144783285Y-115399500D01*
X144086669Y-115399500D01*
X144086653Y-115399499D01*
X144079057Y-115399499D01*
X143920943Y-115399499D01*
X143820657Y-115426371D01*
X143768210Y-115440424D01*
X143768209Y-115440425D01*
X143718096Y-115469359D01*
X143718095Y-115469360D01*
X143681438Y-115490524D01*
X143631285Y-115519479D01*
X143631282Y-115519481D01*
X143519478Y-115631286D01*
X139287584Y-119863181D01*
X139226261Y-119896666D01*
X139199903Y-119899500D01*
X135579766Y-119899500D01*
X135512727Y-119879815D01*
X135510875Y-119878602D01*
X135379185Y-119790609D01*
X135379172Y-119790602D01*
X135233501Y-119730264D01*
X135233489Y-119730261D01*
X135078845Y-119699500D01*
X135078842Y-119699500D01*
X134921158Y-119699500D01*
X134921155Y-119699500D01*
X134766510Y-119730261D01*
X134766498Y-119730264D01*
X134620827Y-119790602D01*
X134620814Y-119790609D01*
X134489711Y-119878210D01*
X134489707Y-119878213D01*
X134378213Y-119989707D01*
X134378210Y-119989711D01*
X134290609Y-120120814D01*
X134290602Y-120120827D01*
X134230264Y-120266498D01*
X134230261Y-120266510D01*
X134199500Y-120421153D01*
X130496598Y-120421153D01*
X130532521Y-120385230D01*
X130533383Y-120383735D01*
X130551091Y-120353067D01*
X130601070Y-120266498D01*
X130611578Y-120248298D01*
X130652502Y-120095571D01*
X130652502Y-119937456D01*
X130652502Y-119929861D01*
X130652501Y-119929843D01*
X130652501Y-119674500D01*
X130672186Y-119607461D01*
X130724990Y-119561706D01*
X130776501Y-119550500D01*
X130828844Y-119550500D01*
X130828845Y-119550499D01*
X130983497Y-119519737D01*
X131114595Y-119465435D01*
X131129172Y-119459397D01*
X131129172Y-119459396D01*
X131129179Y-119459394D01*
X131260289Y-119371789D01*
X131371789Y-119260289D01*
X131459394Y-119129179D01*
X131460918Y-119125501D01*
X131494769Y-119043775D01*
X131519737Y-118983497D01*
X131550500Y-118828842D01*
X131550638Y-118828150D01*
X131583023Y-118766239D01*
X131584518Y-118764716D01*
X132170946Y-118178288D01*
X132232267Y-118144805D01*
X132301959Y-118149789D01*
X132357892Y-118191661D01*
X132382309Y-118257125D01*
X132374727Y-118303961D01*
X132376267Y-118304429D01*
X132374497Y-118310261D01*
X132349500Y-118435928D01*
X132349500Y-118435931D01*
X132349500Y-118564069D01*
X132349500Y-118564071D01*
X132349499Y-118564071D01*
X132374497Y-118689738D01*
X132374499Y-118689744D01*
X132423533Y-118808124D01*
X132423538Y-118808133D01*
X132494723Y-118914668D01*
X132494726Y-118914672D01*
X132585327Y-119005273D01*
X132585331Y-119005276D01*
X132691866Y-119076461D01*
X132691872Y-119076464D01*
X132691873Y-119076465D01*
X132810256Y-119125501D01*
X132810260Y-119125501D01*
X132810261Y-119125502D01*
X132935928Y-119150500D01*
X132935931Y-119150500D01*
X135564071Y-119150500D01*
X135648615Y-119133682D01*
X135689744Y-119125501D01*
X135808127Y-119076465D01*
X135835572Y-119058127D01*
X135914669Y-119005277D01*
X137005277Y-117914669D01*
X137505277Y-117414669D01*
X137576465Y-117308127D01*
X137625501Y-117189743D01*
X137633308Y-117150499D01*
X137650500Y-117064069D01*
X137650500Y-114935931D01*
X137650500Y-114935928D01*
X137625502Y-114810261D01*
X137625501Y-114810260D01*
X137625501Y-114810256D01*
X137576465Y-114691873D01*
X137576464Y-114691872D01*
X137576461Y-114691866D01*
X137505277Y-114585332D01*
X137483239Y-114563294D01*
X137414669Y-114494724D01*
X136607125Y-113687180D01*
X136573640Y-113625857D01*
X136578624Y-113556165D01*
X136620496Y-113500232D01*
X136685960Y-113475815D01*
X136694790Y-113475499D01*
X136998344Y-113475499D01*
X136998352Y-113475498D01*
X136998355Y-113475498D01*
X137060948Y-113469104D01*
X137097708Y-113465349D01*
X137258697Y-113412003D01*
X137403044Y-113322968D01*
X137412668Y-113313343D01*
X137473987Y-113279856D01*
X137543679Y-113284835D01*
X137588034Y-113313339D01*
X137597267Y-113322572D01*
X137597271Y-113322575D01*
X137741507Y-113411542D01*
X137741518Y-113411547D01*
X137902393Y-113464855D01*
X138001683Y-113474999D01*
X138525000Y-113474999D01*
X138548308Y-113474999D01*
X138548322Y-113474998D01*
X138647607Y-113464855D01*
X138808481Y-113411547D01*
X138808492Y-113411542D01*
X138952728Y-113322575D01*
X138952732Y-113322572D01*
X139072572Y-113202732D01*
X139072575Y-113202728D01*
X139161542Y-113058492D01*
X139161547Y-113058481D01*
X139214855Y-112897606D01*
X139224999Y-112798322D01*
X139225000Y-112798309D01*
X139225000Y-112750000D01*
X138525000Y-112750000D01*
X138525000Y-113474999D01*
X138001683Y-113474999D01*
X138025000Y-113474998D01*
X138025000Y-112250000D01*
X138525000Y-112250000D01*
X139224999Y-112250000D01*
X139224999Y-112201692D01*
X139224998Y-112201677D01*
X139214855Y-112102392D01*
X139161547Y-111941518D01*
X139161544Y-111941511D01*
X139083570Y-111815098D01*
X139065129Y-111747705D01*
X139083570Y-111684902D01*
X139161544Y-111558488D01*
X139161547Y-111558481D01*
X139214855Y-111397606D01*
X139224999Y-111298322D01*
X139225000Y-111298309D01*
X139225000Y-111250000D01*
X138525000Y-111250000D01*
X138525000Y-112250000D01*
X138025000Y-112250000D01*
X138025000Y-111124000D01*
X138044685Y-111056961D01*
X138097489Y-111011206D01*
X138149000Y-111000000D01*
X138275000Y-111000000D01*
X138275000Y-110874000D01*
X138294685Y-110806961D01*
X138347489Y-110761206D01*
X138399000Y-110750000D01*
X139224999Y-110750000D01*
X139224999Y-110701692D01*
X139224998Y-110701677D01*
X139214855Y-110602392D01*
X139161547Y-110441518D01*
X139161544Y-110441511D01*
X139138970Y-110404914D01*
X139120529Y-110337522D01*
X139141451Y-110270858D01*
X139195092Y-110226088D01*
X139264423Y-110217426D01*
X139327431Y-110247622D01*
X139332189Y-110252135D01*
X141585325Y-112505272D01*
X141585328Y-112505275D01*
X141663465Y-112557484D01*
X141663464Y-112557484D01*
X141675269Y-112565371D01*
X141691873Y-112576465D01*
X141810256Y-112625501D01*
X141810260Y-112625501D01*
X141810261Y-112625502D01*
X141935928Y-112650500D01*
X141935931Y-112650500D01*
X142495065Y-112650500D01*
X142562104Y-112670185D01*
X142563909Y-112671366D01*
X142620821Y-112709394D01*
X142620823Y-112709395D01*
X142620827Y-112709397D01*
X142718853Y-112750000D01*
X142766503Y-112769737D01*
X142910143Y-112798309D01*
X142921153Y-112800499D01*
X142921156Y-112800500D01*
X142921158Y-112800500D01*
X143078844Y-112800500D01*
X143078845Y-112800499D01*
X143233497Y-112769737D01*
X143379179Y-112709394D01*
X143510289Y-112621789D01*
X143621789Y-112510289D01*
X143709394Y-112379179D01*
X143769737Y-112233497D01*
X143800500Y-112078842D01*
X143800500Y-111921158D01*
X143800500Y-111921155D01*
X143800499Y-111921153D01*
X143798598Y-111911596D01*
X143769737Y-111766503D01*
X143754595Y-111729946D01*
X143709397Y-111620827D01*
X143709390Y-111620814D01*
X143621789Y-111489711D01*
X143621786Y-111489707D01*
X143510292Y-111378213D01*
X143510288Y-111378210D01*
X143379185Y-111290609D01*
X143379172Y-111290602D01*
X143233501Y-111230264D01*
X143233489Y-111230261D01*
X143078845Y-111199500D01*
X143078842Y-111199500D01*
X142921158Y-111199500D01*
X142921155Y-111199500D01*
X142766510Y-111230261D01*
X142766498Y-111230264D01*
X142620827Y-111290602D01*
X142620820Y-111290606D01*
X142603565Y-111302136D01*
X142563955Y-111328602D01*
X142545908Y-111334253D01*
X142530000Y-111344477D01*
X142499040Y-111348928D01*
X142497279Y-111349480D01*
X142495065Y-111349500D01*
X142320808Y-111349500D01*
X142253769Y-111329815D01*
X142233127Y-111313181D01*
X139914674Y-108994727D01*
X139914673Y-108994726D01*
X139914669Y-108994723D01*
X139808127Y-108923535D01*
X139733093Y-108892455D01*
X139689744Y-108874499D01*
X139689738Y-108874497D01*
X139564071Y-108849500D01*
X139564069Y-108849500D01*
X135064069Y-108849500D01*
X131299097Y-108849500D01*
X131232058Y-108829815D01*
X131186303Y-108777011D01*
X131176359Y-108707853D01*
X131205384Y-108644297D01*
X131211416Y-108637819D01*
X132212417Y-107636819D01*
X132273740Y-107603334D01*
X132300098Y-107600500D01*
X140913331Y-107600500D01*
X140913347Y-107600501D01*
X140920943Y-107600501D01*
X141079054Y-107600501D01*
X141079057Y-107600501D01*
X141231785Y-107559577D01*
X141281904Y-107530639D01*
X141368716Y-107480520D01*
X141480520Y-107368716D01*
X141480520Y-107368714D01*
X141490728Y-107358507D01*
X141490730Y-107358504D01*
X144858506Y-103990728D01*
X144858511Y-103990724D01*
X144868714Y-103980520D01*
X144868716Y-103980520D01*
X144980520Y-103868716D01*
X145059577Y-103731784D01*
X145100500Y-103579057D01*
X145100500Y-102212184D01*
X145120185Y-102145145D01*
X145151609Y-102111870D01*
X145216928Y-102064414D01*
X145339414Y-101941928D01*
X145399991Y-101858550D01*
X145455321Y-101815885D01*
X145524934Y-101809906D01*
X145586729Y-101842512D01*
X145600628Y-101858551D01*
X145660967Y-101941602D01*
X145783397Y-102064032D01*
X145923475Y-102165804D01*
X146077744Y-102244408D01*
X146242415Y-102297914D01*
X146242414Y-102297914D01*
X146249999Y-102299115D01*
X146250000Y-102299114D01*
X146250000Y-101230330D01*
X146269745Y-101250075D01*
X146355255Y-101299444D01*
X146450630Y-101325000D01*
X146549370Y-101325000D01*
X146644745Y-101299444D01*
X146730255Y-101250075D01*
X146750000Y-101230330D01*
X146750000Y-102299115D01*
X146757584Y-102297914D01*
X146922255Y-102244408D01*
X147076524Y-102165804D01*
X147216602Y-102064032D01*
X147339032Y-101941602D01*
X147440804Y-101801524D01*
X147519408Y-101647257D01*
X147572914Y-101482584D01*
X147600000Y-101311571D01*
X147600000Y-101200000D01*
X146780330Y-101200000D01*
X146800075Y-101180255D01*
X146849444Y-101094745D01*
X146875000Y-100999370D01*
X146875000Y-100900630D01*
X146849444Y-100805255D01*
X146800075Y-100719745D01*
X146780330Y-100700000D01*
X147600000Y-100700000D01*
X147600000Y-100588428D01*
X147572914Y-100417415D01*
X147519408Y-100252742D01*
X147440804Y-100098475D01*
X147339032Y-99958397D01*
X147216602Y-99835967D01*
X147076524Y-99734195D01*
X146922257Y-99655591D01*
X146757589Y-99602087D01*
X146757581Y-99602085D01*
X146750000Y-99600884D01*
X146750000Y-100669670D01*
X146730255Y-100649925D01*
X146644745Y-100600556D01*
X146549370Y-100575000D01*
X146450630Y-100575000D01*
X146355255Y-100600556D01*
X146269745Y-100649925D01*
X146250000Y-100669670D01*
X146250000Y-99600884D01*
X146249999Y-99600884D01*
X146242418Y-99602085D01*
X146242410Y-99602087D01*
X146077742Y-99655591D01*
X145923475Y-99734195D01*
X145783397Y-99835967D01*
X145660965Y-99958399D01*
X145660961Y-99958404D01*
X145600627Y-100041448D01*
X145545297Y-100084114D01*
X145475684Y-100090093D01*
X145413889Y-100057488D01*
X145399991Y-100041449D01*
X145399990Y-100041448D01*
X145339414Y-99958072D01*
X145216928Y-99835586D01*
X145076788Y-99733768D01*
X144922445Y-99655127D01*
X144757701Y-99601598D01*
X144757699Y-99601597D01*
X144757698Y-99601597D01*
X144626271Y-99580781D01*
X144586611Y-99574500D01*
X144413389Y-99574500D01*
X144373728Y-99580781D01*
X144242302Y-99601597D01*
X144077552Y-99655128D01*
X143923211Y-99733768D01*
X143843256Y-99791859D01*
X143783072Y-99835586D01*
X143783070Y-99835588D01*
X143783069Y-99835588D01*
X143660588Y-99958069D01*
X143660581Y-99958078D01*
X143600317Y-100041023D01*
X143544987Y-100083689D01*
X143475374Y-100089667D01*
X143413579Y-100057061D01*
X143399683Y-100041023D01*
X143339655Y-99958404D01*
X143339414Y-99958072D01*
X143216928Y-99835586D01*
X143076788Y-99733768D01*
X142922445Y-99655127D01*
X142757701Y-99601598D01*
X142757699Y-99601597D01*
X142757698Y-99601597D01*
X142626271Y-99580781D01*
X142586611Y-99574500D01*
X142413389Y-99574500D01*
X142373728Y-99580781D01*
X142242302Y-99601597D01*
X142077552Y-99655128D01*
X141923211Y-99733768D01*
X141783073Y-99835585D01*
X141675530Y-99943128D01*
X141614207Y-99976612D01*
X141544515Y-99971628D01*
X141488582Y-99929756D01*
X141482310Y-99920543D01*
X141442712Y-99856344D01*
X141318656Y-99732288D01*
X141193559Y-99655128D01*
X141169336Y-99640187D01*
X141169331Y-99640185D01*
X141167862Y-99639698D01*
X141002797Y-99585001D01*
X141002795Y-99585000D01*
X140900010Y-99574500D01*
X140099998Y-99574500D01*
X140099980Y-99574501D01*
X139997203Y-99585000D01*
X139997200Y-99585001D01*
X139830668Y-99640185D01*
X139830663Y-99640187D01*
X139681342Y-99732289D01*
X139557289Y-99856342D01*
X139465187Y-100005663D01*
X139465185Y-100005668D01*
X139448155Y-100057061D01*
X139410001Y-100172203D01*
X139410001Y-100172204D01*
X139410000Y-100172204D01*
X139399500Y-100274983D01*
X139399500Y-101625001D01*
X139399501Y-101625018D01*
X139410000Y-101727796D01*
X139410001Y-101727799D01*
X139465185Y-101894331D01*
X139465187Y-101894336D01*
X139488870Y-101932732D01*
X139557288Y-102043656D01*
X139681344Y-102167712D01*
X139790597Y-102235099D01*
X139837321Y-102287047D01*
X139849500Y-102340638D01*
X139849500Y-103775500D01*
X139829815Y-103842539D01*
X139777011Y-103888294D01*
X139725500Y-103899500D01*
X135673115Y-103899500D01*
X135606076Y-103879815D01*
X135560321Y-103827011D01*
X135550377Y-103757853D01*
X135570871Y-103710167D01*
X135568782Y-103708879D01*
X135661542Y-103558492D01*
X135661547Y-103558481D01*
X135714855Y-103397606D01*
X135724999Y-103298322D01*
X135725000Y-103298309D01*
X135725000Y-103250000D01*
X134899000Y-103250000D01*
X134831961Y-103230315D01*
X134786206Y-103177511D01*
X134775000Y-103126000D01*
X134775000Y-103000000D01*
X134649000Y-103000000D01*
X134581961Y-102980315D01*
X134536206Y-102927511D01*
X134525000Y-102876000D01*
X134525000Y-102750000D01*
X135025000Y-102750000D01*
X135724999Y-102750000D01*
X135724999Y-102701692D01*
X135724998Y-102701677D01*
X135714855Y-102602392D01*
X135661547Y-102441518D01*
X135661542Y-102441507D01*
X135572575Y-102297271D01*
X135572572Y-102297267D01*
X135452732Y-102177427D01*
X135452728Y-102177424D01*
X135308492Y-102088457D01*
X135308481Y-102088452D01*
X135147606Y-102035144D01*
X135048322Y-102025000D01*
X135025000Y-102025000D01*
X135025000Y-102750000D01*
X134525000Y-102750000D01*
X134525000Y-102024999D01*
X134501693Y-102025000D01*
X134501674Y-102025001D01*
X134402392Y-102035144D01*
X134241518Y-102088452D01*
X134241507Y-102088457D01*
X134097271Y-102177424D01*
X134097265Y-102177428D01*
X134088031Y-102186663D01*
X134026707Y-102220146D01*
X133957015Y-102215159D01*
X133912672Y-102186660D01*
X133903044Y-102177032D01*
X133903040Y-102177029D01*
X133758705Y-102088001D01*
X133758699Y-102087998D01*
X133758697Y-102087997D01*
X133624881Y-102043655D01*
X133597709Y-102034651D01*
X133498346Y-102024500D01*
X132951662Y-102024500D01*
X132951644Y-102024501D01*
X132852292Y-102034650D01*
X132852289Y-102034651D01*
X132691305Y-102087996D01*
X132691294Y-102088001D01*
X132546959Y-102177029D01*
X132546955Y-102177032D01*
X132427032Y-102296955D01*
X132427029Y-102296959D01*
X132338001Y-102441294D01*
X132337996Y-102441305D01*
X132284651Y-102602290D01*
X132274500Y-102701647D01*
X132274500Y-103298337D01*
X132274501Y-103298355D01*
X132284650Y-103397707D01*
X132284651Y-103397710D01*
X132337996Y-103558694D01*
X132338001Y-103558705D01*
X132427029Y-103703040D01*
X132427032Y-103703044D01*
X132546957Y-103822969D01*
X132553511Y-103827011D01*
X132565594Y-103834464D01*
X132612319Y-103886410D01*
X132624499Y-103940003D01*
X132624499Y-104079054D01*
X132624498Y-104079054D01*
X132665424Y-104231789D01*
X132665425Y-104231790D01*
X132686455Y-104268214D01*
X132686456Y-104268216D01*
X132744475Y-104368709D01*
X132744479Y-104368714D01*
X132744480Y-104368716D01*
X132856284Y-104480520D01*
X132856285Y-104480521D01*
X133356284Y-104980520D01*
X133356286Y-104980521D01*
X133356290Y-104980524D01*
X133493209Y-105059573D01*
X133493216Y-105059577D01*
X133645943Y-105100501D01*
X133645945Y-105100501D01*
X133811654Y-105100501D01*
X133811670Y-105100500D01*
X140102044Y-105100500D01*
X140169083Y-105120185D01*
X140214838Y-105172989D01*
X140223661Y-105200309D01*
X140230261Y-105233489D01*
X140230264Y-105233501D01*
X140290602Y-105379172D01*
X140290609Y-105379185D01*
X140378210Y-105510288D01*
X140378213Y-105510292D01*
X140421661Y-105553740D01*
X140425998Y-105561684D01*
X140433247Y-105567110D01*
X140442483Y-105591872D01*
X140455146Y-105615063D01*
X140454500Y-105624091D01*
X140457664Y-105632574D01*
X140452047Y-105658396D01*
X140450162Y-105684755D01*
X140444344Y-105693807D01*
X140442813Y-105700847D01*
X140421662Y-105729102D01*
X140287582Y-105863182D01*
X140226262Y-105896666D01*
X140199903Y-105899500D01*
X132124000Y-105899500D01*
X132056961Y-105879815D01*
X132011206Y-105827011D01*
X132000000Y-105775500D01*
X132000000Y-96124500D01*
X132019685Y-96057461D01*
X132072489Y-96011706D01*
X132124000Y-96000500D01*
X149375500Y-96000500D01*
X149442539Y-96020185D01*
G37*
%TD.AperFunction*%
%TA.AperFunction,Conductor*%
G36*
X128546708Y-113673178D02*
G01*
X128550389Y-113672901D01*
X128561082Y-113678686D01*
X128593389Y-113691066D01*
X128620809Y-113709387D01*
X128620818Y-113709392D01*
X128620821Y-113709394D01*
X128620823Y-113709394D01*
X128620827Y-113709397D01*
X128708230Y-113745599D01*
X128766503Y-113769737D01*
X128833580Y-113783079D01*
X128895488Y-113815461D01*
X128897068Y-113817014D01*
X129085325Y-114005272D01*
X129085332Y-114005278D01*
X129169300Y-114061383D01*
X129169301Y-114061383D01*
X129191873Y-114076465D01*
X129276564Y-114111545D01*
X129302114Y-114132134D01*
X129328378Y-114151794D01*
X129329180Y-114153944D01*
X129330968Y-114155385D01*
X129341331Y-114186521D01*
X129352796Y-114217258D01*
X129352308Y-114219501D01*
X129353033Y-114221679D01*
X129344919Y-114253466D01*
X129337945Y-114285532D01*
X129336110Y-114287982D01*
X129335754Y-114289379D01*
X129316794Y-114313786D01*
X129275219Y-114355362D01*
X129275218Y-114355363D01*
X129275215Y-114355365D01*
X129275216Y-114355366D01*
X129170478Y-114460104D01*
X129150493Y-114494722D01*
X129150492Y-114494724D01*
X129137320Y-114517539D01*
X129093448Y-114593527D01*
X129091424Y-114597032D01*
X129050500Y-114749760D01*
X129050500Y-114749762D01*
X129050500Y-114917863D01*
X129050501Y-114917876D01*
X129050501Y-117809199D01*
X129030816Y-117876238D01*
X128978012Y-117921993D01*
X128926501Y-117933199D01*
X128916361Y-117933199D01*
X128761716Y-117963960D01*
X128761704Y-117963963D01*
X128616033Y-118024301D01*
X128616020Y-118024308D01*
X128484917Y-118111909D01*
X128484913Y-118111912D01*
X128373419Y-118223406D01*
X128373416Y-118223410D01*
X128289961Y-118348309D01*
X128236348Y-118393114D01*
X128167023Y-118401821D01*
X128103996Y-118371666D01*
X128099178Y-118367099D01*
X128010292Y-118278213D01*
X128010288Y-118278210D01*
X127879185Y-118190609D01*
X127879172Y-118190602D01*
X127733501Y-118130264D01*
X127733491Y-118130261D01*
X127579104Y-118099551D01*
X127517193Y-118067166D01*
X127515615Y-118065615D01*
X127500000Y-118050000D01*
X126924500Y-118050000D01*
X126915814Y-118047449D01*
X126906854Y-118048738D01*
X126882815Y-118037759D01*
X126857461Y-118030315D01*
X126851533Y-118023473D01*
X126843298Y-118019713D01*
X126829009Y-117997479D01*
X126811706Y-117977511D01*
X126809418Y-117966997D01*
X126805523Y-117960936D01*
X126800500Y-117926001D01*
X126800499Y-117869058D01*
X126800499Y-117773999D01*
X126820183Y-117706961D01*
X126872987Y-117661206D01*
X126924499Y-117650000D01*
X127500000Y-117650000D01*
X127500000Y-117274499D01*
X127519685Y-117207460D01*
X127572489Y-117161705D01*
X127624000Y-117150499D01*
X127947871Y-117150499D01*
X127947872Y-117150499D01*
X128007483Y-117144091D01*
X128142331Y-117093796D01*
X128257546Y-117007546D01*
X128343796Y-116892331D01*
X128394091Y-116757483D01*
X128400500Y-116697873D01*
X128400499Y-116202128D01*
X128394091Y-116142517D01*
X128394090Y-116142515D01*
X128394090Y-116142512D01*
X128392308Y-116134969D01*
X128393773Y-116134622D01*
X128389409Y-116073651D01*
X128393819Y-116058633D01*
X128394089Y-116057488D01*
X128394088Y-116057488D01*
X128394091Y-116057483D01*
X128400500Y-115997873D01*
X128400499Y-115502128D01*
X128394091Y-115442517D01*
X128394090Y-115442515D01*
X128394090Y-115442512D01*
X128392308Y-115434969D01*
X128393773Y-115434622D01*
X128389409Y-115373651D01*
X128393819Y-115358633D01*
X128394089Y-115357488D01*
X128394088Y-115357488D01*
X128394091Y-115357483D01*
X128400500Y-115297873D01*
X128400499Y-114802128D01*
X128394091Y-114742517D01*
X128394090Y-114742515D01*
X128394090Y-114742512D01*
X128392308Y-114734969D01*
X128393773Y-114734622D01*
X128389409Y-114673651D01*
X128393819Y-114658633D01*
X128394089Y-114657488D01*
X128394088Y-114657488D01*
X128394091Y-114657483D01*
X128400500Y-114597873D01*
X128400499Y-114102128D01*
X128394091Y-114042517D01*
X128394090Y-114042515D01*
X128394090Y-114042512D01*
X128392308Y-114034969D01*
X128393148Y-114034770D01*
X128386860Y-113991632D01*
X128388079Y-113973600D01*
X128394091Y-113957483D01*
X128400500Y-113897873D01*
X128400499Y-113789973D01*
X128400782Y-113785800D01*
X128411473Y-113756791D01*
X128420183Y-113727130D01*
X128423449Y-113724299D01*
X128424945Y-113720242D01*
X128449620Y-113701621D01*
X128472986Y-113681374D01*
X128477267Y-113680758D01*
X128480717Y-113678155D01*
X128511538Y-113675830D01*
X128542145Y-113671430D01*
X128546708Y-113673178D01*
G37*
%TD.AperFunction*%
%TA.AperFunction,Conductor*%
G36*
X134118039Y-117019685D02*
G01*
X134163794Y-117072489D01*
X134175000Y-117124000D01*
X134175000Y-117131048D01*
X134240869Y-117122378D01*
X134383782Y-117063182D01*
X134432727Y-117025625D01*
X134497896Y-117000430D01*
X134508215Y-117000000D01*
X135099403Y-117000000D01*
X135166442Y-117019685D01*
X135187084Y-117036319D01*
X135527728Y-117376963D01*
X135561213Y-117438286D01*
X135556229Y-117507978D01*
X135527728Y-117552325D01*
X135266873Y-117813181D01*
X135205550Y-117846666D01*
X135179192Y-117849500D01*
X133724500Y-117849500D01*
X133657461Y-117829815D01*
X133611706Y-117777011D01*
X133600500Y-117725500D01*
X133600500Y-117249603D01*
X133600716Y-117248865D01*
X133600509Y-117248127D01*
X133610544Y-117215396D01*
X133620185Y-117182564D01*
X133620764Y-117182061D01*
X133620990Y-117181327D01*
X133647153Y-117159196D01*
X133672989Y-117136809D01*
X133673942Y-117136535D01*
X133674334Y-117136204D01*
X133708315Y-117126664D01*
X133733814Y-117123307D01*
X133766183Y-117123307D01*
X133825000Y-117131049D01*
X133825000Y-117124000D01*
X133827550Y-117115314D01*
X133826262Y-117106353D01*
X133837240Y-117082312D01*
X133844685Y-117056961D01*
X133851525Y-117051033D01*
X133855287Y-117042797D01*
X133877521Y-117028507D01*
X133897489Y-117011206D01*
X133908003Y-117008918D01*
X133914065Y-117005023D01*
X133949000Y-117000000D01*
X134051000Y-117000000D01*
X134118039Y-117019685D01*
G37*
%TD.AperFunction*%
%TA.AperFunction,Conductor*%
G36*
X131427623Y-115249813D02*
G01*
X131455754Y-115252329D01*
X131461402Y-115256716D01*
X131468407Y-115258148D01*
X131488626Y-115277863D01*
X131510933Y-115295190D01*
X131513796Y-115302405D01*
X131518432Y-115306925D01*
X131522379Y-115324030D01*
X131533297Y-115351537D01*
X131539192Y-115396317D01*
X131539192Y-115428687D01*
X131531448Y-115487499D01*
X131531449Y-115487500D01*
X131570699Y-115487500D01*
X131584040Y-115491417D01*
X131597917Y-115490524D01*
X131616903Y-115501067D01*
X131637738Y-115507185D01*
X131646842Y-115517692D01*
X131659001Y-115524444D01*
X131669273Y-115543579D01*
X131683493Y-115559989D01*
X131685471Y-115573751D01*
X131692049Y-115586003D01*
X131690346Y-115607651D01*
X131693437Y-115629147D01*
X131687548Y-115643222D01*
X131686570Y-115655658D01*
X131669726Y-115685818D01*
X131669436Y-115686514D01*
X131669298Y-115686694D01*
X131598883Y-115778463D01*
X131598048Y-115780477D01*
X131591943Y-115788514D01*
X131569870Y-115804794D01*
X131550020Y-115823719D01*
X131541784Y-115825716D01*
X131531449Y-115837501D01*
X131538940Y-115894405D01*
X131538940Y-115926773D01*
X131524501Y-116036449D01*
X131524500Y-116036466D01*
X131524500Y-116288547D01*
X131539635Y-116403497D01*
X131539636Y-116403502D01*
X131598882Y-116546536D01*
X131674376Y-116644922D01*
X131682618Y-116666242D01*
X131694977Y-116685473D01*
X131697892Y-116705752D01*
X131699570Y-116710091D01*
X131700000Y-116720408D01*
X131700000Y-116899403D01*
X131680315Y-116966442D01*
X131663681Y-116987084D01*
X130864182Y-117786583D01*
X130802859Y-117820068D01*
X130733167Y-117815084D01*
X130677234Y-117773212D01*
X130652817Y-117707748D01*
X130652501Y-117698902D01*
X130652501Y-116011314D01*
X130672186Y-115944275D01*
X130724990Y-115898520D01*
X130728992Y-115896776D01*
X130810356Y-115863075D01*
X130941466Y-115775470D01*
X131052966Y-115663970D01*
X131140571Y-115532860D01*
X131200914Y-115387178D01*
X131206821Y-115357483D01*
X131208248Y-115350309D01*
X131220640Y-115326617D01*
X131229668Y-115301448D01*
X131236587Y-115296130D01*
X131240632Y-115288398D01*
X131263866Y-115275167D01*
X131285069Y-115258874D01*
X131296101Y-115256811D01*
X131301348Y-115253824D01*
X131319459Y-115250937D01*
X131324648Y-115250500D01*
X131364069Y-115250500D01*
X131393013Y-115244742D01*
X131399952Y-115244158D01*
X131427623Y-115249813D01*
G37*
%TD.AperFunction*%
%TA.AperFunction,Conductor*%
G36*
X130914746Y-106022875D02*
G01*
X130960656Y-106075544D01*
X130970803Y-106144673D01*
X130941965Y-106208314D01*
X130935695Y-106215068D01*
X129737584Y-107413181D01*
X129676261Y-107446666D01*
X129649903Y-107449500D01*
X128524500Y-107449500D01*
X128457461Y-107429815D01*
X128411706Y-107377011D01*
X128400500Y-107325501D01*
X128400499Y-107102130D01*
X128400498Y-107102123D01*
X128399419Y-107092086D01*
X128394091Y-107042517D01*
X128394091Y-107042516D01*
X128392307Y-107034966D01*
X128393559Y-107034669D01*
X128389145Y-106972924D01*
X128393132Y-106959346D01*
X128393598Y-106957375D01*
X128399999Y-106897844D01*
X128400000Y-106897827D01*
X128400000Y-106700000D01*
X128148069Y-106700000D01*
X128104736Y-106692182D01*
X128007482Y-106655908D01*
X128007483Y-106655908D01*
X127947883Y-106649501D01*
X127947881Y-106649500D01*
X127947873Y-106649500D01*
X127947865Y-106649500D01*
X127324000Y-106649500D01*
X127315314Y-106646949D01*
X127306353Y-106648238D01*
X127282312Y-106637259D01*
X127256961Y-106629815D01*
X127251033Y-106622974D01*
X127242797Y-106619213D01*
X127228507Y-106596978D01*
X127211206Y-106577011D01*
X127208918Y-106566496D01*
X127205023Y-106560435D01*
X127200000Y-106525500D01*
X127200000Y-106324000D01*
X127219685Y-106256961D01*
X127272489Y-106211206D01*
X127324000Y-106200000D01*
X128400000Y-106200000D01*
X128400000Y-106174000D01*
X128419685Y-106106961D01*
X128472489Y-106061206D01*
X128495036Y-106053430D01*
X128509314Y-106050000D01*
X128600000Y-106050000D01*
X128600000Y-106028214D01*
X128662667Y-106013160D01*
X128664052Y-106013229D01*
X128665271Y-106012564D01*
X128691260Y-106009731D01*
X130847652Y-106003388D01*
X130914746Y-106022875D01*
G37*
%TD.AperFunction*%
%TD*%
M02*
