%TF.GenerationSoftware,KiCad,Pcbnew,9.0.6*%
%TF.CreationDate,2025-12-12T12:47:45+02:00*%
%TF.ProjectId,Excercise_6,45786365-7263-4697-9365-5f362e6b6963,rev?*%
%TF.SameCoordinates,Original*%
%TF.FileFunction,Legend,Top*%
%TF.FilePolarity,Positive*%
%FSLAX46Y46*%
G04 Gerber Fmt 4.6, Leading zero omitted, Abs format (unit mm)*
G04 Created by KiCad (PCBNEW 9.0.6) date 2025-12-12 12:47:45*
%MOMM*%
%LPD*%
G01*
G04 APERTURE LIST*
%ADD10C,0.150000*%
%ADD11C,0.120000*%
G04 APERTURE END LIST*
D10*
X135738095Y-114954819D02*
X135738095Y-115764342D01*
X135738095Y-115764342D02*
X135785714Y-115859580D01*
X135785714Y-115859580D02*
X135833333Y-115907200D01*
X135833333Y-115907200D02*
X135928571Y-115954819D01*
X135928571Y-115954819D02*
X136119047Y-115954819D01*
X136119047Y-115954819D02*
X136214285Y-115907200D01*
X136214285Y-115907200D02*
X136261904Y-115859580D01*
X136261904Y-115859580D02*
X136309523Y-115764342D01*
X136309523Y-115764342D02*
X136309523Y-114954819D01*
X136738095Y-115050057D02*
X136785714Y-115002438D01*
X136785714Y-115002438D02*
X136880952Y-114954819D01*
X136880952Y-114954819D02*
X137119047Y-114954819D01*
X137119047Y-114954819D02*
X137214285Y-115002438D01*
X137214285Y-115002438D02*
X137261904Y-115050057D01*
X137261904Y-115050057D02*
X137309523Y-115145295D01*
X137309523Y-115145295D02*
X137309523Y-115240533D01*
X137309523Y-115240533D02*
X137261904Y-115383390D01*
X137261904Y-115383390D02*
X136690476Y-115954819D01*
X136690476Y-115954819D02*
X137309523Y-115954819D01*
X132833333Y-111454819D02*
X132500000Y-110978628D01*
X132261905Y-111454819D02*
X132261905Y-110454819D01*
X132261905Y-110454819D02*
X132642857Y-110454819D01*
X132642857Y-110454819D02*
X132738095Y-110502438D01*
X132738095Y-110502438D02*
X132785714Y-110550057D01*
X132785714Y-110550057D02*
X132833333Y-110645295D01*
X132833333Y-110645295D02*
X132833333Y-110788152D01*
X132833333Y-110788152D02*
X132785714Y-110883390D01*
X132785714Y-110883390D02*
X132738095Y-110931009D01*
X132738095Y-110931009D02*
X132642857Y-110978628D01*
X132642857Y-110978628D02*
X132261905Y-110978628D01*
X133166667Y-110454819D02*
X133785714Y-110454819D01*
X133785714Y-110454819D02*
X133452381Y-110835771D01*
X133452381Y-110835771D02*
X133595238Y-110835771D01*
X133595238Y-110835771D02*
X133690476Y-110883390D01*
X133690476Y-110883390D02*
X133738095Y-110931009D01*
X133738095Y-110931009D02*
X133785714Y-111026247D01*
X133785714Y-111026247D02*
X133785714Y-111264342D01*
X133785714Y-111264342D02*
X133738095Y-111359580D01*
X133738095Y-111359580D02*
X133690476Y-111407200D01*
X133690476Y-111407200D02*
X133595238Y-111454819D01*
X133595238Y-111454819D02*
X133309524Y-111454819D01*
X133309524Y-111454819D02*
X133214286Y-111407200D01*
X133214286Y-111407200D02*
X133166667Y-111359580D01*
X139833333Y-112859580D02*
X139785714Y-112907200D01*
X139785714Y-112907200D02*
X139642857Y-112954819D01*
X139642857Y-112954819D02*
X139547619Y-112954819D01*
X139547619Y-112954819D02*
X139404762Y-112907200D01*
X139404762Y-112907200D02*
X139309524Y-112811961D01*
X139309524Y-112811961D02*
X139261905Y-112716723D01*
X139261905Y-112716723D02*
X139214286Y-112526247D01*
X139214286Y-112526247D02*
X139214286Y-112383390D01*
X139214286Y-112383390D02*
X139261905Y-112192914D01*
X139261905Y-112192914D02*
X139309524Y-112097676D01*
X139309524Y-112097676D02*
X139404762Y-112002438D01*
X139404762Y-112002438D02*
X139547619Y-111954819D01*
X139547619Y-111954819D02*
X139642857Y-111954819D01*
X139642857Y-111954819D02*
X139785714Y-112002438D01*
X139785714Y-112002438D02*
X139833333Y-112050057D01*
X140214286Y-112050057D02*
X140261905Y-112002438D01*
X140261905Y-112002438D02*
X140357143Y-111954819D01*
X140357143Y-111954819D02*
X140595238Y-111954819D01*
X140595238Y-111954819D02*
X140690476Y-112002438D01*
X140690476Y-112002438D02*
X140738095Y-112050057D01*
X140738095Y-112050057D02*
X140785714Y-112145295D01*
X140785714Y-112145295D02*
X140785714Y-112240533D01*
X140785714Y-112240533D02*
X140738095Y-112383390D01*
X140738095Y-112383390D02*
X140166667Y-112954819D01*
X140166667Y-112954819D02*
X140785714Y-112954819D01*
X136333333Y-103359580D02*
X136285714Y-103407200D01*
X136285714Y-103407200D02*
X136142857Y-103454819D01*
X136142857Y-103454819D02*
X136047619Y-103454819D01*
X136047619Y-103454819D02*
X135904762Y-103407200D01*
X135904762Y-103407200D02*
X135809524Y-103311961D01*
X135809524Y-103311961D02*
X135761905Y-103216723D01*
X135761905Y-103216723D02*
X135714286Y-103026247D01*
X135714286Y-103026247D02*
X135714286Y-102883390D01*
X135714286Y-102883390D02*
X135761905Y-102692914D01*
X135761905Y-102692914D02*
X135809524Y-102597676D01*
X135809524Y-102597676D02*
X135904762Y-102502438D01*
X135904762Y-102502438D02*
X136047619Y-102454819D01*
X136047619Y-102454819D02*
X136142857Y-102454819D01*
X136142857Y-102454819D02*
X136285714Y-102502438D01*
X136285714Y-102502438D02*
X136333333Y-102550057D01*
X136666667Y-102454819D02*
X137285714Y-102454819D01*
X137285714Y-102454819D02*
X136952381Y-102835771D01*
X136952381Y-102835771D02*
X137095238Y-102835771D01*
X137095238Y-102835771D02*
X137190476Y-102883390D01*
X137190476Y-102883390D02*
X137238095Y-102931009D01*
X137238095Y-102931009D02*
X137285714Y-103026247D01*
X137285714Y-103026247D02*
X137285714Y-103264342D01*
X137285714Y-103264342D02*
X137238095Y-103359580D01*
X137238095Y-103359580D02*
X137190476Y-103407200D01*
X137190476Y-103407200D02*
X137095238Y-103454819D01*
X137095238Y-103454819D02*
X136809524Y-103454819D01*
X136809524Y-103454819D02*
X136714286Y-103407200D01*
X136714286Y-103407200D02*
X136666667Y-103359580D01*
X139833333Y-111359580D02*
X139785714Y-111407200D01*
X139785714Y-111407200D02*
X139642857Y-111454819D01*
X139642857Y-111454819D02*
X139547619Y-111454819D01*
X139547619Y-111454819D02*
X139404762Y-111407200D01*
X139404762Y-111407200D02*
X139309524Y-111311961D01*
X139309524Y-111311961D02*
X139261905Y-111216723D01*
X139261905Y-111216723D02*
X139214286Y-111026247D01*
X139214286Y-111026247D02*
X139214286Y-110883390D01*
X139214286Y-110883390D02*
X139261905Y-110692914D01*
X139261905Y-110692914D02*
X139309524Y-110597676D01*
X139309524Y-110597676D02*
X139404762Y-110502438D01*
X139404762Y-110502438D02*
X139547619Y-110454819D01*
X139547619Y-110454819D02*
X139642857Y-110454819D01*
X139642857Y-110454819D02*
X139785714Y-110502438D01*
X139785714Y-110502438D02*
X139833333Y-110550057D01*
X140785714Y-111454819D02*
X140214286Y-111454819D01*
X140500000Y-111454819D02*
X140500000Y-110454819D01*
X140500000Y-110454819D02*
X140404762Y-110597676D01*
X140404762Y-110597676D02*
X140309524Y-110692914D01*
X140309524Y-110692914D02*
X140214286Y-110740533D01*
X148583333Y-116454819D02*
X148250000Y-115978628D01*
X148011905Y-116454819D02*
X148011905Y-115454819D01*
X148011905Y-115454819D02*
X148392857Y-115454819D01*
X148392857Y-115454819D02*
X148488095Y-115502438D01*
X148488095Y-115502438D02*
X148535714Y-115550057D01*
X148535714Y-115550057D02*
X148583333Y-115645295D01*
X148583333Y-115645295D02*
X148583333Y-115788152D01*
X148583333Y-115788152D02*
X148535714Y-115883390D01*
X148535714Y-115883390D02*
X148488095Y-115931009D01*
X148488095Y-115931009D02*
X148392857Y-115978628D01*
X148392857Y-115978628D02*
X148011905Y-115978628D01*
X149535714Y-116454819D02*
X148964286Y-116454819D01*
X149250000Y-116454819D02*
X149250000Y-115454819D01*
X149250000Y-115454819D02*
X149154762Y-115597676D01*
X149154762Y-115597676D02*
X149059524Y-115692914D01*
X149059524Y-115692914D02*
X148964286Y-115740533D01*
X148011905Y-118954819D02*
X148011905Y-117954819D01*
X148011905Y-117954819D02*
X148250000Y-117954819D01*
X148250000Y-117954819D02*
X148392857Y-118002438D01*
X148392857Y-118002438D02*
X148488095Y-118097676D01*
X148488095Y-118097676D02*
X148535714Y-118192914D01*
X148535714Y-118192914D02*
X148583333Y-118383390D01*
X148583333Y-118383390D02*
X148583333Y-118526247D01*
X148583333Y-118526247D02*
X148535714Y-118716723D01*
X148535714Y-118716723D02*
X148488095Y-118811961D01*
X148488095Y-118811961D02*
X148392857Y-118907200D01*
X148392857Y-118907200D02*
X148250000Y-118954819D01*
X148250000Y-118954819D02*
X148011905Y-118954819D01*
X149535714Y-118954819D02*
X148964286Y-118954819D01*
X149250000Y-118954819D02*
X149250000Y-117954819D01*
X149250000Y-117954819D02*
X149154762Y-118097676D01*
X149154762Y-118097676D02*
X149059524Y-118192914D01*
X149059524Y-118192914D02*
X148964286Y-118240533D01*
X132833333Y-112954819D02*
X132500000Y-112478628D01*
X132261905Y-112954819D02*
X132261905Y-111954819D01*
X132261905Y-111954819D02*
X132642857Y-111954819D01*
X132642857Y-111954819D02*
X132738095Y-112002438D01*
X132738095Y-112002438D02*
X132785714Y-112050057D01*
X132785714Y-112050057D02*
X132833333Y-112145295D01*
X132833333Y-112145295D02*
X132833333Y-112288152D01*
X132833333Y-112288152D02*
X132785714Y-112383390D01*
X132785714Y-112383390D02*
X132738095Y-112431009D01*
X132738095Y-112431009D02*
X132642857Y-112478628D01*
X132642857Y-112478628D02*
X132261905Y-112478628D01*
X133214286Y-112050057D02*
X133261905Y-112002438D01*
X133261905Y-112002438D02*
X133357143Y-111954819D01*
X133357143Y-111954819D02*
X133595238Y-111954819D01*
X133595238Y-111954819D02*
X133690476Y-112002438D01*
X133690476Y-112002438D02*
X133738095Y-112050057D01*
X133738095Y-112050057D02*
X133785714Y-112145295D01*
X133785714Y-112145295D02*
X133785714Y-112240533D01*
X133785714Y-112240533D02*
X133738095Y-112383390D01*
X133738095Y-112383390D02*
X133166667Y-112954819D01*
X133166667Y-112954819D02*
X133785714Y-112954819D01*
X121738095Y-99454819D02*
X121738095Y-100264342D01*
X121738095Y-100264342D02*
X121785714Y-100359580D01*
X121785714Y-100359580D02*
X121833333Y-100407200D01*
X121833333Y-100407200D02*
X121928571Y-100454819D01*
X121928571Y-100454819D02*
X122119047Y-100454819D01*
X122119047Y-100454819D02*
X122214285Y-100407200D01*
X122214285Y-100407200D02*
X122261904Y-100359580D01*
X122261904Y-100359580D02*
X122309523Y-100264342D01*
X122309523Y-100264342D02*
X122309523Y-99454819D01*
X123309523Y-100454819D02*
X122738095Y-100454819D01*
X123023809Y-100454819D02*
X123023809Y-99454819D01*
X123023809Y-99454819D02*
X122928571Y-99597676D01*
X122928571Y-99597676D02*
X122833333Y-99692914D01*
X122833333Y-99692914D02*
X122738095Y-99740533D01*
X143166666Y-97454819D02*
X143166666Y-98169104D01*
X143166666Y-98169104D02*
X143119047Y-98311961D01*
X143119047Y-98311961D02*
X143023809Y-98407200D01*
X143023809Y-98407200D02*
X142880952Y-98454819D01*
X142880952Y-98454819D02*
X142785714Y-98454819D01*
X144166666Y-98454819D02*
X143595238Y-98454819D01*
X143880952Y-98454819D02*
X143880952Y-97454819D01*
X143880952Y-97454819D02*
X143785714Y-97597676D01*
X143785714Y-97597676D02*
X143690476Y-97692914D01*
X143690476Y-97692914D02*
X143595238Y-97740533D01*
D11*
%TO.C,U2*%
X131890000Y-114052500D02*
X132565000Y-114052500D01*
X131890000Y-114227500D02*
X131890000Y-114052500D01*
X131890000Y-116772500D02*
X131890000Y-116597500D01*
X132565000Y-116772500D02*
X131890000Y-116772500D01*
X134435000Y-114052500D02*
X135110000Y-114052500D01*
X135110000Y-114052500D02*
X135110000Y-114227500D01*
X135110000Y-116597500D02*
X135110000Y-116772500D01*
X135110000Y-116772500D02*
X134435000Y-116772500D01*
X131760000Y-114662500D02*
X131430000Y-114902500D01*
X131430000Y-114422500D01*
X131760000Y-114662500D01*
G36*
X131760000Y-114662500D02*
G01*
X131430000Y-114902500D01*
X131430000Y-114422500D01*
X131760000Y-114662500D01*
G37*
%TO.C,R3*%
X130582742Y-110477500D02*
X131057258Y-110477500D01*
X130582742Y-111522500D02*
X131057258Y-111522500D01*
%TO.C,C2*%
X137359420Y-111990000D02*
X137640580Y-111990000D01*
X137359420Y-113010000D02*
X137640580Y-113010000D01*
%TO.C,C3*%
X133859420Y-102490000D02*
X134140580Y-102490000D01*
X133859420Y-103510000D02*
X134140580Y-103510000D01*
%TO.C,C1*%
X137359420Y-110490000D02*
X137640580Y-110490000D01*
X137359420Y-111510000D02*
X137640580Y-111510000D01*
%TO.C,R1*%
X146262742Y-115477500D02*
X146737258Y-115477500D01*
X146262742Y-116522500D02*
X146737258Y-116522500D01*
%TO.C,D1*%
X145015000Y-117765000D02*
X145015000Y-119235000D01*
X145015000Y-119235000D02*
X147300000Y-119235000D01*
X147300000Y-117765000D02*
X145015000Y-117765000D01*
%TO.C,R2*%
X130582742Y-111977500D02*
X131057258Y-111977500D01*
X130582742Y-113022500D02*
X131057258Y-113022500D01*
%TO.C,U1*%
X117500000Y-102150000D02*
X117500000Y-103750000D01*
X117500000Y-102150000D02*
X119100000Y-102150000D01*
X117500000Y-118350000D02*
X117500000Y-117250000D01*
X117800000Y-118350000D02*
X117500000Y-118350000D01*
X126100000Y-102150000D02*
X127700000Y-102150000D01*
X127400000Y-118350000D02*
X127700000Y-118350000D01*
X127700000Y-102150000D02*
X127700000Y-103750000D01*
X127700000Y-118350000D02*
X127700000Y-117250000D01*
X117500000Y-107650000D02*
X117000000Y-107150000D01*
X117500000Y-107150000D01*
X117500000Y-107650000D01*
G36*
X117500000Y-107650000D02*
G01*
X117000000Y-107150000D01*
X117500000Y-107150000D01*
X117500000Y-107650000D01*
G37*
%TO.C,J1*%
X138140000Y-98840000D02*
X138140000Y-100090000D01*
X138440000Y-99140000D02*
X138440000Y-103860000D01*
X138440000Y-100450000D02*
X139050000Y-100450000D01*
X138440000Y-101750000D02*
X139050000Y-101750000D01*
X138440000Y-103860000D02*
X148560000Y-103860000D01*
X139050000Y-99750000D02*
X139050000Y-103250000D01*
X139050000Y-103250000D02*
X147950000Y-103250000D01*
X139390000Y-98840000D02*
X138140000Y-98840000D01*
X139900000Y-98940000D02*
X139900000Y-99140000D01*
X140200000Y-98940000D02*
X139900000Y-98940000D01*
X140200000Y-99040000D02*
X139900000Y-99040000D01*
X140200000Y-99140000D02*
X140200000Y-98940000D01*
X141000000Y-99140000D02*
X141000000Y-99750000D01*
X141000000Y-99750000D02*
X139050000Y-99750000D01*
X141400000Y-102750000D02*
X141600000Y-102750000D01*
X141400000Y-103250000D02*
X141400000Y-102750000D01*
X141500000Y-103250000D02*
X141500000Y-102750000D01*
X141600000Y-102750000D02*
X141600000Y-103250000D01*
X143400000Y-102750000D02*
X143600000Y-102750000D01*
X143400000Y-103250000D02*
X143400000Y-102750000D01*
X143500000Y-103250000D02*
X143500000Y-102750000D01*
X143600000Y-102750000D02*
X143600000Y-103250000D01*
X145400000Y-102750000D02*
X145600000Y-102750000D01*
X145400000Y-103250000D02*
X145400000Y-102750000D01*
X145500000Y-103250000D02*
X145500000Y-102750000D01*
X145600000Y-102750000D02*
X145600000Y-103250000D01*
X146000000Y-99750000D02*
X146000000Y-99140000D01*
X147950000Y-99750000D02*
X146000000Y-99750000D01*
X147950000Y-103250000D02*
X147950000Y-99750000D01*
X148560000Y-99140000D02*
X138440000Y-99140000D01*
X148560000Y-100450000D02*
X147950000Y-100450000D01*
X148560000Y-101750000D02*
X147950000Y-101750000D01*
X148560000Y-103860000D02*
X148560000Y-99140000D01*
%TD*%
M02*
