M48
; DRILL file {KiCad 9.0.6} date 2025-12-12T12:47:53+0200
; FORMAT={-:-/ absolute / metric / decimal}
; #@! TF.CreationDate,2025-12-12T12:47:53+02:00
; #@! TF.GenerationSoftware,Kicad,Pcbnew,9.0.6
; #@! TF.FileFunction,Plated,1,2,PTH
FMAT,2
METRIC
; #@! TA.AperFunction,Plated,PTH,ViaDrill
T1C0.300
; #@! TA.AperFunction,Plated,PTH,ComponentDrill
T2C0.750
%
G90
G05
T1
X116.0Y-107.0
X116.625Y-115.375
X118.0Y-119.5
X127.5Y-118.9
X128.75Y-106.5
X128.75Y-116.75
X128.995Y-118.734
X129.0Y-113.0
X129.0Y-119.534
X130.24Y-114.24
X130.431Y-115.154
X130.75Y-118.75
X131.224Y-116.624
X132.572Y-113.427
X133.5Y-112.291
X134.0Y-117.5
X135.0Y-120.5
X136.0Y-115.801
X141.0Y-105.0
X143.0Y-112.0
T2
X140.5Y-100.95
X142.5Y-100.95
X144.5Y-100.95
X146.5Y-100.95
M30
