%TF.GenerationSoftware,KiCad,Pcbnew,9.0.6*%
%TF.CreationDate,2025-12-12T12:47:45+02:00*%
%TF.ProjectId,Excercise_6,45786365-7263-4697-9365-5f362e6b6963,rev?*%
%TF.SameCoordinates,Original*%
%TF.FileFunction,Soldermask,Top*%
%TF.FilePolarity,Negative*%
%FSLAX46Y46*%
G04 Gerber Fmt 4.6, Leading zero omitted, Abs format (unit mm)*
G04 Created by KiCad (PCBNEW 9.0.6) date 2025-12-12 12:47:45*
%MOMM*%
%LPD*%
G01*
G04 APERTURE LIST*
G04 Aperture macros list*
%AMRoundRect*
0 Rectangle with rounded corners*
0 $1 Rounding radius*
0 $2 $3 $4 $5 $6 $7 $8 $9 X,Y pos of 4 corners*
0 Add a 4 corners polygon primitive as box body*
4,1,4,$2,$3,$4,$5,$6,$7,$8,$9,$2,$3,0*
0 Add four circle primitives for the rounded corners*
1,1,$1+$1,$2,$3*
1,1,$1+$1,$4,$5*
1,1,$1+$1,$6,$7*
1,1,$1+$1,$8,$9*
0 Add four rect primitives between the rounded corners*
20,1,$1+$1,$2,$3,$4,$5,0*
20,1,$1+$1,$4,$5,$6,$7,0*
20,1,$1+$1,$6,$7,$8,$9,0*
20,1,$1+$1,$8,$9,$2,$3,0*%
G04 Aperture macros list end*
%ADD10RoundRect,0.087500X-0.225000X-0.087500X0.225000X-0.087500X0.225000X0.087500X-0.225000X0.087500X0*%
%ADD11RoundRect,0.087500X-0.087500X-0.225000X0.087500X-0.225000X0.087500X0.225000X-0.087500X0.225000X0*%
%ADD12RoundRect,0.200000X-0.200000X-0.275000X0.200000X-0.275000X0.200000X0.275000X-0.200000X0.275000X0*%
%ADD13RoundRect,0.225000X-0.225000X-0.250000X0.225000X-0.250000X0.225000X0.250000X-0.225000X0.250000X0*%
%ADD14RoundRect,0.218750X-0.218750X-0.256250X0.218750X-0.256250X0.218750X0.256250X-0.218750X0.256250X0*%
%ADD15R,1.400000X0.800000*%
%ADD16R,1.400000X0.400000*%
%ADD17R,0.400000X1.400000*%
%ADD18R,1.000000X0.400000*%
%ADD19RoundRect,0.250000X-0.350000X-0.625000X0.350000X-0.625000X0.350000X0.625000X-0.350000X0.625000X0*%
%ADD20O,1.200000X1.750000*%
G04 APERTURE END LIST*
D10*
%TO.C,U2*%
X132337500Y-114662500D03*
X132337500Y-115162500D03*
X132337500Y-115662500D03*
X132337500Y-116162500D03*
D11*
X133000000Y-116325000D03*
X133500000Y-116325000D03*
X134000000Y-116325000D03*
D10*
X134662500Y-116162500D03*
X134662500Y-115662500D03*
X134662500Y-115162500D03*
X134662500Y-114662500D03*
D11*
X134000000Y-114500000D03*
X133500000Y-114500000D03*
X133000000Y-114500000D03*
%TD*%
D12*
%TO.C,R3*%
X129995000Y-111000000D03*
X131645000Y-111000000D03*
%TD*%
D13*
%TO.C,C2*%
X136725000Y-112500000D03*
X138275000Y-112500000D03*
%TD*%
%TO.C,C3*%
X133225000Y-103000000D03*
X134775000Y-103000000D03*
%TD*%
%TO.C,C1*%
X136725000Y-111000000D03*
X138275000Y-111000000D03*
%TD*%
D12*
%TO.C,R1*%
X145675000Y-116000000D03*
X147325000Y-116000000D03*
%TD*%
D14*
%TO.C,D1*%
X145712500Y-118500000D03*
X147287500Y-118500000D03*
%TD*%
D12*
%TO.C,R2*%
X129995000Y-112500000D03*
X131645000Y-112500000D03*
%TD*%
D15*
%TO.C,U1*%
X118000000Y-106450000D03*
D16*
X118000000Y-109450000D03*
X118000000Y-110150000D03*
X118000000Y-110850000D03*
X118000000Y-111550000D03*
X118000000Y-112250000D03*
X118000000Y-112950000D03*
X118000000Y-113650000D03*
X118000000Y-114350000D03*
X118000000Y-115050000D03*
X118000000Y-115750000D03*
D17*
X118400000Y-117850000D03*
X119100000Y-117850000D03*
X119800000Y-117850000D03*
X120500000Y-117850000D03*
X121200000Y-117850000D03*
X121900000Y-117850000D03*
X122600000Y-117850000D03*
X123300000Y-117850000D03*
X124000000Y-117850000D03*
X124700000Y-117850000D03*
X125400000Y-117850000D03*
X126100000Y-117850000D03*
X126800000Y-117850000D03*
D16*
X127200000Y-116450000D03*
X127200000Y-115750000D03*
X127200000Y-115050000D03*
X127200000Y-114350000D03*
X127200000Y-113650000D03*
X127200000Y-112950000D03*
X127200000Y-112250000D03*
X127200000Y-111550000D03*
X127200000Y-110850000D03*
X127200000Y-110150000D03*
X127200000Y-109450000D03*
X127200000Y-108750000D03*
X127200000Y-108050000D03*
X127200000Y-107350000D03*
D15*
X127200000Y-106450000D03*
D18*
X125500000Y-107000000D03*
X125500000Y-108400000D03*
%TD*%
D19*
%TO.C,J1*%
X140500000Y-100950000D03*
D20*
X142500000Y-100950000D03*
X144500000Y-100950000D03*
X146500000Y-100950000D03*
%TD*%
M02*
