%TF.GenerationSoftware,KiCad,Pcbnew,9.0.6*%
%TF.CreationDate,2025-12-12T12:47:45+02:00*%
%TF.ProjectId,Excercise_6,45786365-7263-4697-9365-5f362e6b6963,rev?*%
%TF.SameCoordinates,Original*%
%TF.FileFunction,Copper,L2,Bot*%
%TF.FilePolarity,Positive*%
%FSLAX46Y46*%
G04 Gerber Fmt 4.6, Leading zero omitted, Abs format (unit mm)*
G04 Created by KiCad (PCBNEW 9.0.6) date 2025-12-12 12:47:45*
%MOMM*%
%LPD*%
G01*
G04 APERTURE LIST*
G04 Aperture macros list*
%AMRoundRect*
0 Rectangle with rounded corners*
0 $1 Rounding radius*
0 $2 $3 $4 $5 $6 $7 $8 $9 X,Y pos of 4 corners*
0 Add a 4 corners polygon primitive as box body*
4,1,4,$2,$3,$4,$5,$6,$7,$8,$9,$2,$3,0*
0 Add four circle primitives for the rounded corners*
1,1,$1+$1,$2,$3*
1,1,$1+$1,$4,$5*
1,1,$1+$1,$6,$7*
1,1,$1+$1,$8,$9*
0 Add four rect primitives between the rounded corners*
20,1,$1+$1,$2,$3,$4,$5,0*
20,1,$1+$1,$4,$5,$6,$7,0*
20,1,$1+$1,$6,$7,$8,$9,0*
20,1,$1+$1,$8,$9,$2,$3,0*%
G04 Aperture macros list end*
%TA.AperFunction,ComponentPad*%
%ADD10RoundRect,0.250000X-0.350000X-0.625000X0.350000X-0.625000X0.350000X0.625000X-0.350000X0.625000X0*%
%TD*%
%TA.AperFunction,ComponentPad*%
%ADD11O,1.200000X1.750000*%
%TD*%
%TA.AperFunction,SMDPad,CuDef*%
%ADD12R,5.000000X5.000000*%
%TD*%
%TA.AperFunction,SMDPad,CuDef*%
%ADD13R,4.000000X4.000000*%
%TD*%
%TA.AperFunction,ViaPad*%
%ADD14C,0.600000*%
%TD*%
%TA.AperFunction,Conductor*%
%ADD15C,0.300000*%
%TD*%
%TA.AperFunction,Conductor*%
%ADD16C,0.200000*%
%TD*%
G04 APERTURE END LIST*
D10*
%TO.P,J1,1,Pin_1*%
%TO.N,+BATT*%
X140500000Y-100950000D03*
D11*
%TO.P,J1,2,Pin_2*%
%TO.N,/SWDCLK*%
X142500000Y-100950000D03*
%TO.P,J1,3,Pin_3*%
%TO.N,/SWDIO*%
X144500000Y-100950000D03*
%TO.P,J1,4,Pin_4*%
%TO.N,GND*%
X146500000Y-100950000D03*
%TD*%
D12*
%TO.P,BT1,1,+*%
%TO.N,+BATT*%
X120550000Y-109790773D03*
X146450000Y-109790773D03*
D13*
%TO.P,BT1,2,-*%
%TO.N,GND*%
X133500000Y-109790773D03*
%TD*%
D14*
%TO.N,+BATT*%
X143000000Y-112000000D03*
X129000000Y-113000000D03*
X141000000Y-105000000D03*
X116625000Y-115375000D03*
%TO.N,GND*%
X118000000Y-119500000D03*
X134000000Y-117500000D03*
X131224265Y-116624265D03*
X128750000Y-106500000D03*
X116000000Y-107000000D03*
X128750000Y-116750000D03*
%TO.N,Net-(U1-P0.08)*%
X127500000Y-118900000D03*
X135000000Y-120500000D03*
%TO.N,/SCL*%
X130431177Y-115153681D03*
X132572500Y-113427500D03*
%TO.N,/SDA*%
X133500000Y-112290775D03*
X130239909Y-114239909D03*
%TO.N,/INT2*%
X136000000Y-115801000D03*
X129000329Y-119533685D03*
%TO.N,/INT1*%
X130750000Y-118750000D03*
X128995206Y-118733699D03*
%TD*%
D15*
%TO.N,+BATT*%
X143000000Y-112000000D02*
X144240773Y-112000000D01*
X117000000Y-115000000D02*
X117000000Y-113500000D01*
D16*
X144763454Y-112000000D02*
X146745000Y-110018454D01*
D15*
X143000000Y-112000000D02*
X143000000Y-107000000D01*
X120500000Y-113500000D02*
X120500000Y-109840773D01*
X129000000Y-113000000D02*
X128500000Y-113500000D01*
X116625000Y-115375000D02*
X117000000Y-115000000D01*
X120500000Y-109840773D02*
X120550000Y-109790773D01*
X120500000Y-113500000D02*
X117000000Y-113500000D01*
X143000000Y-107000000D02*
X141000000Y-105000000D01*
X128500000Y-113500000D02*
X120500000Y-113500000D01*
X120550000Y-109790773D02*
X121290773Y-109790773D01*
D16*
X145790773Y-109790773D02*
X146450000Y-109790773D01*
D15*
X144240773Y-112000000D02*
X146450000Y-109790773D01*
X118209227Y-109790773D02*
X120550000Y-109790773D01*
D16*
%TO.N,GND*%
X133601000Y-109891773D02*
X133500000Y-109790773D01*
X133500000Y-109790773D02*
X134709227Y-109790773D01*
%TO.N,Net-(U1-P0.08)*%
X129100000Y-120500000D02*
X127500000Y-118900000D01*
X135000000Y-120500000D02*
X129100000Y-120500000D01*
%TO.N,/SCL*%
X132157358Y-113427500D02*
X132572500Y-113427500D01*
X130431177Y-115153681D02*
X132157358Y-113427500D01*
%TO.N,/SDA*%
X132709225Y-112290775D02*
X133500000Y-112290775D01*
X130760091Y-114239909D02*
X132709225Y-112290775D01*
X130239909Y-114239909D02*
X130760091Y-114239909D01*
%TO.N,/INT2*%
X136000000Y-117500000D02*
X136000000Y-115801000D01*
X129000329Y-119533685D02*
X129117787Y-119533685D01*
X129117787Y-119533685D02*
X129151472Y-119500000D01*
X129000329Y-119533685D02*
X133966315Y-119533685D01*
X129000329Y-119533685D02*
X129068115Y-119601471D01*
X133966315Y-119533685D02*
X136000000Y-117500000D01*
%TO.N,/INT1*%
X130733699Y-118733699D02*
X130750000Y-118750000D01*
X128995206Y-118733699D02*
X130733699Y-118733699D01*
%TD*%
%TA.AperFunction,Conductor*%
%TO.N,GND*%
G36*
X149442539Y-96020185D02*
G01*
X149488294Y-96072989D01*
X149499500Y-96124500D01*
X149499500Y-106829201D01*
X149479815Y-106896240D01*
X149427011Y-106941995D01*
X149357853Y-106951939D01*
X149301189Y-106928468D01*
X149257491Y-106895756D01*
X149192331Y-106846977D01*
X149192329Y-106846976D01*
X149192328Y-106846975D01*
X149057482Y-106796681D01*
X149057483Y-106796681D01*
X148997883Y-106790274D01*
X148997881Y-106790273D01*
X148997873Y-106790273D01*
X148997864Y-106790273D01*
X143902129Y-106790273D01*
X143902123Y-106790274D01*
X143842515Y-106796682D01*
X143761776Y-106826795D01*
X143692084Y-106831779D01*
X143630762Y-106798293D01*
X143603883Y-106758065D01*
X143576468Y-106691879D01*
X143576461Y-106691866D01*
X143505277Y-106585332D01*
X143505276Y-106585331D01*
X143414669Y-106494724D01*
X141817015Y-104897070D01*
X141783530Y-104835747D01*
X141783095Y-104833660D01*
X141769737Y-104766503D01*
X141745599Y-104708230D01*
X141709397Y-104620827D01*
X141709390Y-104620814D01*
X141621789Y-104489711D01*
X141621786Y-104489707D01*
X141510292Y-104378213D01*
X141510288Y-104378210D01*
X141379185Y-104290609D01*
X141379172Y-104290602D01*
X141233501Y-104230264D01*
X141233489Y-104230261D01*
X141078845Y-104199500D01*
X141078842Y-104199500D01*
X140921158Y-104199500D01*
X140921155Y-104199500D01*
X140766510Y-104230261D01*
X140766498Y-104230264D01*
X140620827Y-104290602D01*
X140620814Y-104290609D01*
X140489711Y-104378210D01*
X140489707Y-104378213D01*
X140378213Y-104489707D01*
X140378210Y-104489711D01*
X140290609Y-104620814D01*
X140290602Y-104620827D01*
X140230264Y-104766498D01*
X140230261Y-104766510D01*
X140199500Y-104921153D01*
X140199500Y-105078846D01*
X140230261Y-105233489D01*
X140230264Y-105233501D01*
X140290602Y-105379172D01*
X140290609Y-105379185D01*
X140378210Y-105510288D01*
X140378213Y-105510292D01*
X140489707Y-105621786D01*
X140489711Y-105621789D01*
X140620814Y-105709390D01*
X140620827Y-105709397D01*
X140708230Y-105745599D01*
X140766503Y-105769737D01*
X140833581Y-105783079D01*
X140895490Y-105815463D01*
X140897070Y-105817015D01*
X142313181Y-107233126D01*
X142346666Y-107294449D01*
X142349500Y-107320807D01*
X142349500Y-111495064D01*
X142329815Y-111562103D01*
X142328603Y-111563954D01*
X142290608Y-111620817D01*
X142290602Y-111620828D01*
X142230264Y-111766498D01*
X142230261Y-111766510D01*
X142199500Y-111921153D01*
X142199500Y-112078846D01*
X142230261Y-112233489D01*
X142230264Y-112233501D01*
X142290602Y-112379172D01*
X142290609Y-112379185D01*
X142378210Y-112510288D01*
X142378213Y-112510292D01*
X142489707Y-112621786D01*
X142489711Y-112621789D01*
X142620814Y-112709390D01*
X142620827Y-112709397D01*
X142724512Y-112752344D01*
X142766503Y-112769737D01*
X142921153Y-112800499D01*
X142921156Y-112800500D01*
X142921158Y-112800500D01*
X143078844Y-112800500D01*
X143078845Y-112800499D01*
X143233497Y-112769737D01*
X143379179Y-112709394D01*
X143436044Y-112671397D01*
X143454091Y-112665746D01*
X143470000Y-112655523D01*
X143500959Y-112651071D01*
X143502721Y-112650520D01*
X143504935Y-112650500D01*
X143554095Y-112650500D01*
X143621134Y-112670185D01*
X143628406Y-112675233D01*
X143674043Y-112709397D01*
X143707668Y-112734568D01*
X143707671Y-112734570D01*
X143842517Y-112784864D01*
X143842516Y-112784864D01*
X143849444Y-112785608D01*
X143902127Y-112791273D01*
X148997872Y-112791272D01*
X149057483Y-112784864D01*
X149192331Y-112734569D01*
X149271594Y-112675233D01*
X149301189Y-112653078D01*
X149366653Y-112628660D01*
X149434926Y-112643511D01*
X149484332Y-112692916D01*
X149499500Y-112752344D01*
X149499500Y-121875500D01*
X149479815Y-121942539D01*
X149427011Y-121988294D01*
X149375500Y-121999500D01*
X115624500Y-121999500D01*
X115557461Y-121979815D01*
X115511706Y-121927011D01*
X115500500Y-121875500D01*
X115500500Y-115296153D01*
X115824500Y-115296153D01*
X115824500Y-115453846D01*
X115855261Y-115608489D01*
X115855264Y-115608501D01*
X115915602Y-115754172D01*
X115915609Y-115754185D01*
X116003210Y-115885288D01*
X116003213Y-115885292D01*
X116114707Y-115996786D01*
X116114711Y-115996789D01*
X116245814Y-116084390D01*
X116245827Y-116084397D01*
X116391498Y-116144735D01*
X116391503Y-116144737D01*
X116546153Y-116175499D01*
X116546156Y-116175500D01*
X116546158Y-116175500D01*
X116703844Y-116175500D01*
X116703845Y-116175499D01*
X116858497Y-116144737D01*
X117004179Y-116084394D01*
X117135289Y-115996789D01*
X117246789Y-115885289D01*
X117334394Y-115754179D01*
X117394737Y-115608497D01*
X117408079Y-115541418D01*
X117440463Y-115479510D01*
X117441946Y-115477998D01*
X117505277Y-115414669D01*
X117576465Y-115308127D01*
X117625501Y-115189744D01*
X117627596Y-115179211D01*
X117650500Y-115064069D01*
X117650500Y-114274500D01*
X117670185Y-114207461D01*
X117722989Y-114161706D01*
X117774500Y-114150500D01*
X128564071Y-114150500D01*
X128648615Y-114133682D01*
X128689744Y-114125501D01*
X128808127Y-114076465D01*
X128914669Y-114005277D01*
X129102933Y-113817011D01*
X129113802Y-113810275D01*
X129119595Y-113803045D01*
X129138432Y-113795012D01*
X129151110Y-113787156D01*
X129158632Y-113784627D01*
X129233497Y-113769737D01*
X129364877Y-113715317D01*
X129368903Y-113713965D01*
X129399737Y-113712773D01*
X129430420Y-113709475D01*
X129434339Y-113711437D01*
X129438720Y-113711268D01*
X129465302Y-113726935D01*
X129492899Y-113740750D01*
X129495136Y-113744520D01*
X129498912Y-113746746D01*
X129512803Y-113774298D01*
X129528551Y-113800839D01*
X129528394Y-113805219D01*
X129530368Y-113809134D01*
X129527158Y-113839824D01*
X129526057Y-113870664D01*
X129523106Y-113878575D01*
X129523101Y-113878625D01*
X129523076Y-113878655D01*
X129522964Y-113878957D01*
X129470173Y-114006407D01*
X129470170Y-114006419D01*
X129439409Y-114161062D01*
X129439409Y-114318755D01*
X129470170Y-114473398D01*
X129470173Y-114473410D01*
X129530511Y-114619081D01*
X129530518Y-114619094D01*
X129618119Y-114750197D01*
X129618122Y-114750201D01*
X129639952Y-114772031D01*
X129673437Y-114833354D01*
X129668453Y-114903046D01*
X129666835Y-114907158D01*
X129661440Y-114920184D01*
X129661437Y-114920192D01*
X129630677Y-115074834D01*
X129630677Y-115232527D01*
X129661438Y-115387170D01*
X129661441Y-115387182D01*
X129721779Y-115532853D01*
X129721786Y-115532866D01*
X129809387Y-115663969D01*
X129809390Y-115663973D01*
X129920884Y-115775467D01*
X129920888Y-115775470D01*
X130051991Y-115863071D01*
X130052004Y-115863078D01*
X130197675Y-115923416D01*
X130197680Y-115923418D01*
X130352330Y-115954180D01*
X130352333Y-115954181D01*
X130352335Y-115954181D01*
X130510021Y-115954181D01*
X130510022Y-115954180D01*
X130664674Y-115923418D01*
X130810356Y-115863075D01*
X130941466Y-115775470D01*
X131052966Y-115663970D01*
X131140571Y-115532860D01*
X131200914Y-115387178D01*
X131220290Y-115289766D01*
X131231815Y-115231831D01*
X131264200Y-115169920D01*
X131265695Y-115168397D01*
X131488319Y-114945774D01*
X131549642Y-114912289D01*
X131619334Y-114917273D01*
X131675267Y-114959145D01*
X131699684Y-115024609D01*
X131700000Y-115033455D01*
X131700000Y-117000000D01*
X135275500Y-117000000D01*
X135284185Y-117002550D01*
X135293147Y-117001262D01*
X135317187Y-117012240D01*
X135342539Y-117019685D01*
X135348466Y-117026525D01*
X135356703Y-117030287D01*
X135370992Y-117052521D01*
X135388294Y-117072489D01*
X135390581Y-117083003D01*
X135394477Y-117089065D01*
X135399500Y-117124000D01*
X135399500Y-117199903D01*
X135379815Y-117266942D01*
X135363181Y-117287584D01*
X133753899Y-118896866D01*
X133692576Y-118930351D01*
X133666218Y-118933185D01*
X131674500Y-118933185D01*
X131607461Y-118913500D01*
X131561706Y-118860696D01*
X131550500Y-118809185D01*
X131550500Y-118671155D01*
X131550499Y-118671153D01*
X131520596Y-118520821D01*
X131519737Y-118516503D01*
X131468628Y-118393114D01*
X131459397Y-118370827D01*
X131459390Y-118370814D01*
X131371789Y-118239711D01*
X131371786Y-118239707D01*
X131260292Y-118128213D01*
X131260288Y-118128210D01*
X131129185Y-118040609D01*
X131129172Y-118040602D01*
X130983501Y-117980264D01*
X130983489Y-117980261D01*
X130828845Y-117949500D01*
X130828842Y-117949500D01*
X130671158Y-117949500D01*
X130671155Y-117949500D01*
X130516510Y-117980261D01*
X130516498Y-117980264D01*
X130370827Y-118040602D01*
X130370814Y-118040609D01*
X130263521Y-118112301D01*
X130196843Y-118133179D01*
X130194630Y-118133199D01*
X129574972Y-118133199D01*
X129507933Y-118113514D01*
X129506081Y-118112301D01*
X129374391Y-118024308D01*
X129374378Y-118024301D01*
X129228707Y-117963963D01*
X129228695Y-117963960D01*
X129074051Y-117933199D01*
X129074048Y-117933199D01*
X128916364Y-117933199D01*
X128916361Y-117933199D01*
X128761716Y-117963960D01*
X128761704Y-117963963D01*
X128616033Y-118024301D01*
X128616020Y-118024308D01*
X128484917Y-118111909D01*
X128484913Y-118111912D01*
X128373419Y-118223406D01*
X128373416Y-118223410D01*
X128289961Y-118348309D01*
X128236348Y-118393114D01*
X128167023Y-118401821D01*
X128103996Y-118371666D01*
X128099178Y-118367099D01*
X128010292Y-118278213D01*
X128010288Y-118278210D01*
X127879185Y-118190609D01*
X127879172Y-118190602D01*
X127733501Y-118130264D01*
X127733489Y-118130261D01*
X127578845Y-118099500D01*
X127578842Y-118099500D01*
X127421158Y-118099500D01*
X127421155Y-118099500D01*
X127266510Y-118130261D01*
X127266498Y-118130264D01*
X127120827Y-118190602D01*
X127120814Y-118190609D01*
X126989711Y-118278210D01*
X126989707Y-118278213D01*
X126878213Y-118389707D01*
X126878210Y-118389711D01*
X126790609Y-118520814D01*
X126790602Y-118520827D01*
X126730264Y-118666498D01*
X126730261Y-118666510D01*
X126699500Y-118821153D01*
X126699500Y-118978846D01*
X126730261Y-119133489D01*
X126730264Y-119133501D01*
X126790602Y-119279172D01*
X126790609Y-119279185D01*
X126878210Y-119410288D01*
X126878213Y-119410292D01*
X126989707Y-119521786D01*
X126989711Y-119521789D01*
X127120814Y-119609390D01*
X127120827Y-119609397D01*
X127266498Y-119669735D01*
X127266503Y-119669737D01*
X127331147Y-119682595D01*
X127421849Y-119700638D01*
X127483760Y-119733023D01*
X127485337Y-119734572D01*
X128731284Y-120980520D01*
X128731286Y-120980521D01*
X128731290Y-120980524D01*
X128868209Y-121059573D01*
X128868216Y-121059577D01*
X129020943Y-121100501D01*
X129020945Y-121100501D01*
X129186654Y-121100501D01*
X129186670Y-121100500D01*
X134420234Y-121100500D01*
X134487273Y-121120185D01*
X134489125Y-121121398D01*
X134620814Y-121209390D01*
X134620827Y-121209397D01*
X134766498Y-121269735D01*
X134766503Y-121269737D01*
X134921153Y-121300499D01*
X134921156Y-121300500D01*
X134921158Y-121300500D01*
X135078844Y-121300500D01*
X135078845Y-121300499D01*
X135233497Y-121269737D01*
X135379179Y-121209394D01*
X135510289Y-121121789D01*
X135621789Y-121010289D01*
X135709394Y-120879179D01*
X135769737Y-120733497D01*
X135800500Y-120578842D01*
X135800500Y-120421158D01*
X135800500Y-120421155D01*
X135800499Y-120421153D01*
X135769738Y-120266510D01*
X135769737Y-120266503D01*
X135769735Y-120266498D01*
X135709397Y-120120827D01*
X135709390Y-120120814D01*
X135621789Y-119989711D01*
X135621786Y-119989707D01*
X135510292Y-119878213D01*
X135510288Y-119878210D01*
X135379185Y-119790609D01*
X135379172Y-119790602D01*
X135233501Y-119730264D01*
X135233489Y-119730261D01*
X135078845Y-119699500D01*
X135078842Y-119699500D01*
X134949097Y-119699500D01*
X134882058Y-119679815D01*
X134836303Y-119627011D01*
X134826359Y-119557853D01*
X134855384Y-119494297D01*
X134861416Y-119487819D01*
X135215746Y-119133489D01*
X136368713Y-117980521D01*
X136368716Y-117980520D01*
X136480520Y-117868716D01*
X136530639Y-117781904D01*
X136559577Y-117731785D01*
X136600501Y-117579057D01*
X136600501Y-117420943D01*
X136600501Y-117413348D01*
X136600500Y-117413330D01*
X136600500Y-116380765D01*
X136620185Y-116313726D01*
X136621398Y-116311874D01*
X136709390Y-116180185D01*
X136709390Y-116180184D01*
X136709394Y-116180179D01*
X136769737Y-116034497D01*
X136800500Y-115879842D01*
X136800500Y-115722158D01*
X136800500Y-115722155D01*
X136800499Y-115722153D01*
X136788926Y-115663973D01*
X136769737Y-115567503D01*
X136743652Y-115504528D01*
X136709397Y-115421827D01*
X136709390Y-115421814D01*
X136621789Y-115290711D01*
X136621786Y-115290707D01*
X136510292Y-115179213D01*
X136510288Y-115179210D01*
X136379185Y-115091609D01*
X136379172Y-115091602D01*
X136233501Y-115031264D01*
X136233489Y-115031261D01*
X136078845Y-115000500D01*
X136078842Y-115000500D01*
X135921158Y-115000500D01*
X135921155Y-115000500D01*
X135766510Y-115031261D01*
X135766498Y-115031264D01*
X135620827Y-115091602D01*
X135620809Y-115091612D01*
X135492890Y-115177085D01*
X135426213Y-115197963D01*
X135358833Y-115179478D01*
X135312143Y-115127499D01*
X135300000Y-115073983D01*
X135300000Y-113900000D01*
X133428818Y-113900000D01*
X133361779Y-113880315D01*
X133316024Y-113827511D01*
X133306080Y-113758353D01*
X133314257Y-113728548D01*
X133342235Y-113661001D01*
X133342237Y-113660997D01*
X133373000Y-113506342D01*
X133373000Y-113348658D01*
X133373000Y-113348655D01*
X133372999Y-113348653D01*
X133351281Y-113239466D01*
X133357508Y-113169875D01*
X133400371Y-113114697D01*
X133466261Y-113091453D01*
X133472898Y-113091275D01*
X133578844Y-113091275D01*
X133578845Y-113091274D01*
X133733497Y-113060512D01*
X133879179Y-113000169D01*
X134010289Y-112912564D01*
X134121789Y-112801064D01*
X134209394Y-112669954D01*
X134215372Y-112655523D01*
X134266077Y-112533108D01*
X134269737Y-112524272D01*
X134296330Y-112390582D01*
X134328715Y-112328671D01*
X134389430Y-112294097D01*
X134417947Y-112290773D01*
X135547828Y-112290773D01*
X135547844Y-112290772D01*
X135607372Y-112284371D01*
X135607379Y-112284369D01*
X135742086Y-112234127D01*
X135742093Y-112234123D01*
X135857187Y-112147963D01*
X135857190Y-112147960D01*
X135943350Y-112032866D01*
X135943354Y-112032859D01*
X135993596Y-111898152D01*
X135993598Y-111898145D01*
X135999999Y-111838617D01*
X136000000Y-111838600D01*
X136000000Y-110040773D01*
X131000000Y-110040773D01*
X131000000Y-111838617D01*
X131006401Y-111898145D01*
X131006403Y-111898152D01*
X131056645Y-112032859D01*
X131056649Y-112032866D01*
X131142809Y-112147960D01*
X131142812Y-112147963D01*
X131257906Y-112234123D01*
X131257913Y-112234127D01*
X131392620Y-112284369D01*
X131392627Y-112284371D01*
X131452155Y-112290772D01*
X131452172Y-112290773D01*
X131560629Y-112290773D01*
X131627668Y-112310458D01*
X131673423Y-112363262D01*
X131683367Y-112432420D01*
X131654342Y-112495976D01*
X131648310Y-112502454D01*
X130678495Y-113472268D01*
X130617172Y-113505753D01*
X130547480Y-113500769D01*
X130543362Y-113499148D01*
X130473410Y-113470173D01*
X130473398Y-113470170D01*
X130318754Y-113439409D01*
X130318751Y-113439409D01*
X130161067Y-113439409D01*
X130161064Y-113439409D01*
X130006419Y-113470170D01*
X130006407Y-113470173D01*
X129878957Y-113522964D01*
X129809487Y-113530433D01*
X129747008Y-113499157D01*
X129711357Y-113439068D01*
X129713851Y-113369243D01*
X129716938Y-113360965D01*
X129769737Y-113233497D01*
X129800500Y-113078842D01*
X129800500Y-112921158D01*
X129800500Y-112921155D01*
X129800499Y-112921153D01*
X129783229Y-112834332D01*
X129769737Y-112766503D01*
X129756509Y-112734568D01*
X129709397Y-112620827D01*
X129709390Y-112620814D01*
X129621789Y-112489711D01*
X129621786Y-112489707D01*
X129510292Y-112378213D01*
X129510288Y-112378210D01*
X129379185Y-112290609D01*
X129379172Y-112290602D01*
X129233501Y-112230264D01*
X129233489Y-112230261D01*
X129078845Y-112199500D01*
X129078842Y-112199500D01*
X128921158Y-112199500D01*
X128921155Y-112199500D01*
X128766510Y-112230261D01*
X128766498Y-112230264D01*
X128620827Y-112290602D01*
X128620814Y-112290609D01*
X128489711Y-112378210D01*
X128489707Y-112378213D01*
X128378213Y-112489707D01*
X128378210Y-112489711D01*
X128290609Y-112620814D01*
X128290602Y-112620827D01*
X128227932Y-112772131D01*
X128225477Y-112771114D01*
X128193490Y-112819930D01*
X128129679Y-112848390D01*
X128113122Y-112849500D01*
X123504664Y-112849500D01*
X123437625Y-112829815D01*
X123391870Y-112777011D01*
X123381926Y-112707853D01*
X123405398Y-112651189D01*
X123493793Y-112533108D01*
X123493792Y-112533108D01*
X123493796Y-112533104D01*
X123544091Y-112398256D01*
X123550500Y-112338646D01*
X123550499Y-107742928D01*
X131000000Y-107742928D01*
X131000000Y-109540773D01*
X133250000Y-109540773D01*
X133750000Y-109540773D01*
X136000000Y-109540773D01*
X136000000Y-107742945D01*
X135999999Y-107742928D01*
X135993598Y-107683400D01*
X135993596Y-107683393D01*
X135943354Y-107548686D01*
X135943350Y-107548679D01*
X135857190Y-107433585D01*
X135857187Y-107433582D01*
X135742093Y-107347422D01*
X135742086Y-107347418D01*
X135607379Y-107297176D01*
X135607372Y-107297174D01*
X135547844Y-107290773D01*
X133750000Y-107290773D01*
X133750000Y-109540773D01*
X133250000Y-109540773D01*
X133250000Y-107290773D01*
X131452155Y-107290773D01*
X131392627Y-107297174D01*
X131392620Y-107297176D01*
X131257913Y-107347418D01*
X131257906Y-107347422D01*
X131142812Y-107433582D01*
X131142809Y-107433585D01*
X131056649Y-107548679D01*
X131056645Y-107548686D01*
X131006403Y-107683393D01*
X131006401Y-107683400D01*
X131000000Y-107742928D01*
X123550499Y-107742928D01*
X123550499Y-107242901D01*
X123544091Y-107183290D01*
X123493796Y-107048442D01*
X123493795Y-107048441D01*
X123493793Y-107048437D01*
X123407547Y-106933228D01*
X123407544Y-106933225D01*
X123292335Y-106846979D01*
X123292328Y-106846975D01*
X123157482Y-106796681D01*
X123157483Y-106796681D01*
X123097883Y-106790274D01*
X123097881Y-106790273D01*
X123097873Y-106790273D01*
X123097864Y-106790273D01*
X118002129Y-106790273D01*
X118002123Y-106790274D01*
X117942516Y-106796681D01*
X117807671Y-106846975D01*
X117807664Y-106846979D01*
X117692455Y-106933225D01*
X117692452Y-106933228D01*
X117606206Y-107048437D01*
X117606202Y-107048444D01*
X117555908Y-107183290D01*
X117550551Y-107233126D01*
X117549501Y-107242896D01*
X117549500Y-107242908D01*
X117549500Y-112338643D01*
X117549501Y-112338649D01*
X117555908Y-112398256D01*
X117606202Y-112533101D01*
X117606206Y-112533108D01*
X117694602Y-112651189D01*
X117719020Y-112716653D01*
X117704169Y-112784926D01*
X117654764Y-112834332D01*
X117595336Y-112849500D01*
X116935929Y-112849500D01*
X116810261Y-112874497D01*
X116810255Y-112874499D01*
X116691875Y-112923533D01*
X116691866Y-112923538D01*
X116585331Y-112994723D01*
X116585327Y-112994726D01*
X116494726Y-113085327D01*
X116494723Y-113085331D01*
X116423538Y-113191866D01*
X116423533Y-113191875D01*
X116374499Y-113310255D01*
X116374497Y-113310261D01*
X116349500Y-113435928D01*
X116349500Y-114539806D01*
X116329815Y-114606845D01*
X116277011Y-114652600D01*
X116272954Y-114654367D01*
X116245821Y-114665606D01*
X116245814Y-114665609D01*
X116114711Y-114753210D01*
X116114707Y-114753213D01*
X116003213Y-114864707D01*
X116003210Y-114864711D01*
X115915609Y-114995814D01*
X115915602Y-114995827D01*
X115855264Y-115141498D01*
X115855261Y-115141510D01*
X115824500Y-115296153D01*
X115500500Y-115296153D01*
X115500500Y-106172162D01*
X115520185Y-106105123D01*
X115572989Y-106059368D01*
X115624132Y-106048163D01*
X116543732Y-106045459D01*
X116559366Y-106050000D01*
X116600000Y-106050000D01*
X128599999Y-106050000D01*
X128600000Y-106050000D01*
X128600000Y-106049999D01*
X128603949Y-106046050D01*
X128665271Y-106012564D01*
X128691260Y-106009731D01*
X132000000Y-106000000D01*
X132000000Y-100274983D01*
X139399500Y-100274983D01*
X139399500Y-101625001D01*
X139399501Y-101625018D01*
X139410000Y-101727796D01*
X139410001Y-101727799D01*
X139465185Y-101894331D01*
X139465187Y-101894336D01*
X139488870Y-101932732D01*
X139557288Y-102043656D01*
X139681344Y-102167712D01*
X139830666Y-102259814D01*
X139997203Y-102314999D01*
X140099991Y-102325500D01*
X140900008Y-102325499D01*
X140900016Y-102325498D01*
X140900019Y-102325498D01*
X140956302Y-102319748D01*
X141002797Y-102314999D01*
X141169334Y-102259814D01*
X141318656Y-102167712D01*
X141442712Y-102043656D01*
X141482310Y-101979456D01*
X141534258Y-101932732D01*
X141603220Y-101921509D01*
X141667303Y-101949352D01*
X141675530Y-101956872D01*
X141783072Y-102064414D01*
X141923212Y-102166232D01*
X142077555Y-102244873D01*
X142242299Y-102298402D01*
X142413389Y-102325500D01*
X142413390Y-102325500D01*
X142586610Y-102325500D01*
X142586611Y-102325500D01*
X142757701Y-102298402D01*
X142922445Y-102244873D01*
X143076788Y-102166232D01*
X143216928Y-102064414D01*
X143339414Y-101941928D01*
X143399682Y-101858975D01*
X143455012Y-101816311D01*
X143524626Y-101810332D01*
X143586421Y-101842938D01*
X143600315Y-101858973D01*
X143660586Y-101941928D01*
X143783072Y-102064414D01*
X143923212Y-102166232D01*
X144077555Y-102244873D01*
X144242299Y-102298402D01*
X144413389Y-102325500D01*
X144413390Y-102325500D01*
X144586610Y-102325500D01*
X144586611Y-102325500D01*
X144757701Y-102298402D01*
X144922445Y-102244873D01*
X145076788Y-102166232D01*
X145216928Y-102064414D01*
X145339414Y-101941928D01*
X145399991Y-101858550D01*
X145455321Y-101815885D01*
X145524934Y-101809906D01*
X145586729Y-101842512D01*
X145600628Y-101858551D01*
X145660967Y-101941602D01*
X145783397Y-102064032D01*
X145923475Y-102165804D01*
X146077744Y-102244408D01*
X146242415Y-102297914D01*
X146242414Y-102297914D01*
X146249999Y-102299115D01*
X146250000Y-102299114D01*
X146250000Y-101230330D01*
X146269745Y-101250075D01*
X146355255Y-101299444D01*
X146450630Y-101325000D01*
X146549370Y-101325000D01*
X146644745Y-101299444D01*
X146730255Y-101250075D01*
X146750000Y-101230330D01*
X146750000Y-102299115D01*
X146757584Y-102297914D01*
X146922255Y-102244408D01*
X147076524Y-102165804D01*
X147216602Y-102064032D01*
X147339032Y-101941602D01*
X147440804Y-101801524D01*
X147519408Y-101647257D01*
X147572914Y-101482584D01*
X147600000Y-101311571D01*
X147600000Y-101200000D01*
X146780330Y-101200000D01*
X146800075Y-101180255D01*
X146849444Y-101094745D01*
X146875000Y-100999370D01*
X146875000Y-100900630D01*
X146849444Y-100805255D01*
X146800075Y-100719745D01*
X146780330Y-100700000D01*
X147600000Y-100700000D01*
X147600000Y-100588428D01*
X147572914Y-100417415D01*
X147519408Y-100252742D01*
X147440804Y-100098475D01*
X147339032Y-99958397D01*
X147216602Y-99835967D01*
X147076524Y-99734195D01*
X146922257Y-99655591D01*
X146757589Y-99602087D01*
X146757581Y-99602085D01*
X146750000Y-99600884D01*
X146750000Y-100669670D01*
X146730255Y-100649925D01*
X146644745Y-100600556D01*
X146549370Y-100575000D01*
X146450630Y-100575000D01*
X146355255Y-100600556D01*
X146269745Y-100649925D01*
X146250000Y-100669670D01*
X146250000Y-99600884D01*
X146249999Y-99600884D01*
X146242418Y-99602085D01*
X146242410Y-99602087D01*
X146077742Y-99655591D01*
X145923475Y-99734195D01*
X145783397Y-99835967D01*
X145660965Y-99958399D01*
X145660961Y-99958404D01*
X145600627Y-100041448D01*
X145545297Y-100084114D01*
X145475684Y-100090093D01*
X145413889Y-100057488D01*
X145399991Y-100041449D01*
X145399990Y-100041448D01*
X145339414Y-99958072D01*
X145216928Y-99835586D01*
X145076788Y-99733768D01*
X144922445Y-99655127D01*
X144757701Y-99601598D01*
X144757699Y-99601597D01*
X144757698Y-99601597D01*
X144626271Y-99580781D01*
X144586611Y-99574500D01*
X144413389Y-99574500D01*
X144373728Y-99580781D01*
X144242302Y-99601597D01*
X144077552Y-99655128D01*
X143923211Y-99733768D01*
X143843256Y-99791859D01*
X143783072Y-99835586D01*
X143783070Y-99835588D01*
X143783069Y-99835588D01*
X143660588Y-99958069D01*
X143660581Y-99958078D01*
X143600317Y-100041023D01*
X143544987Y-100083689D01*
X143475374Y-100089667D01*
X143413579Y-100057061D01*
X143399683Y-100041023D01*
X143339655Y-99958404D01*
X143339414Y-99958072D01*
X143216928Y-99835586D01*
X143076788Y-99733768D01*
X142922445Y-99655127D01*
X142757701Y-99601598D01*
X142757699Y-99601597D01*
X142757698Y-99601597D01*
X142626271Y-99580781D01*
X142586611Y-99574500D01*
X142413389Y-99574500D01*
X142373728Y-99580781D01*
X142242302Y-99601597D01*
X142077552Y-99655128D01*
X141923211Y-99733768D01*
X141783073Y-99835585D01*
X141675530Y-99943128D01*
X141614207Y-99976612D01*
X141544515Y-99971628D01*
X141488582Y-99929756D01*
X141482310Y-99920543D01*
X141442712Y-99856344D01*
X141318656Y-99732288D01*
X141193559Y-99655128D01*
X141169336Y-99640187D01*
X141169331Y-99640185D01*
X141167862Y-99639698D01*
X141002797Y-99585001D01*
X141002795Y-99585000D01*
X140900010Y-99574500D01*
X140099998Y-99574500D01*
X140099980Y-99574501D01*
X139997203Y-99585000D01*
X139997200Y-99585001D01*
X139830668Y-99640185D01*
X139830663Y-99640187D01*
X139681342Y-99732289D01*
X139557289Y-99856342D01*
X139465187Y-100005663D01*
X139465185Y-100005668D01*
X139448155Y-100057061D01*
X139410001Y-100172203D01*
X139410001Y-100172204D01*
X139410000Y-100172204D01*
X139399500Y-100274983D01*
X132000000Y-100274983D01*
X132000000Y-96124500D01*
X132019685Y-96057461D01*
X132072489Y-96011706D01*
X132124000Y-96000500D01*
X149375500Y-96000500D01*
X149442539Y-96020185D01*
G37*
%TD.AperFunction*%
%TD*%
M02*
